<?xml version="1.0" encoding="utf-8"?>
<!-- Generator: Adobe Illustrator 17.0.0, SVG Export Plug-In . SVG Version: 6.00 Build 0)  -->
<!DOCTYPE svg PUBLIC "-//W3C//DTD SVG 1.1//EN" "http://www.w3.org/Graphics/SVG/1.1/DTD/svg11.dtd">
<svg version="1.1" id="Layer_1" xmlns="http://www.w3.org/2000/svg" xmlns:xlink="http://www.w3.org/1999/xlink" x="0px" y="0px"
	 width="100%" height="100%" viewBox="0 0 960 600" style="enable-background:new 0 0 960 600;" xml:space="preserve">
<style type="text/css">
	.st0{fill:none;stroke-linecap:round;stroke-miterlimit:10;}
	.st1{fill:none;stroke-width:3;stroke-linecap:round;stroke-miterlimit:10;}

	.tiempo1 path{
		animation-duration:18s;
		-webkit-animation-duration:18s;
		-moz-animation-duration:18s;
		-o-animation-duration:18s;
	}

	.tiempo2 path{
		animation-duration:23s;
		-webkit-animation-duration:23s;
		-moz-animation-duration:23s;
		-o-animation-duration:23s;
	}

	.tiempo3 path{
		animation-duration:16s;
		-webkit-animation-duration:16s;
		-moz-animation-duration:16s;
		-o-animation-duration:16s;
	}

	.tiempo4 path{
		animation-duration:10.3s;
		-webkit-animation-duration:10.3s;
		-moz-animation-duration:10.3s;
		-o-animation-duration:10.3s;
	}

	.tiempo5 path{
		animation-duration:23.2s;
		-webkit-animation-duration:23.2s;
		-moz-animation-duration:23.2s;
		-o-animation-duration:23.2s;
	}

	.tiempo6 path{
		animation-duration:17.5s;
		-webkit-animation-duration:17.5s;
		-moz-animation-duration:17.5s;
		-o-animation-duration:17.5s;
	}

	.tiempo7 path{
		animation-duration:12s;
		-webkit-animation-duration:12s;
		-moz-animation-duration:12s;
		-o-animation-duration:12s;
	}

	.tiempo8 path{
		animation-duration:20.5s;
		-webkit-animation-duration:20.5s;
		-moz-animation-duration:20.5s;
		-o-animation-duration:20.5s;
	}

	.tiempo9 path{
		animation-duration:15.3s;
		-webkit-animation-duration:15.3s;
		-moz-animation-duration:15.3s;
		-o-animation-duration:15.3s;
	}

	.tiempo10 path{
		animation-duration:9.8s;
		-webkit-animation-duration:9.8s;
		-moz-animation-duration:9.8s;
		-o-animation-duration:9.8s;
	}

	.tiempo11 path{
		animation-duration:25.8s;
		-webkit-animation-duration:25.8s;
		-moz-animation-duration:25.8s;
		-o-animation-duration:25.8s;
	}

	.tiempo12 path{
		animation-duration:18.8s;
		-webkit-animation-duration:18.8s;
		-moz-animation-duration:18.8s;
		-o-animation-duration:18.8s;
	}

	.tiempo13 path{
		animation-duration:12.3s;
		-webkit-animation-duration:12.3s;
		-moz-animation-duration:12.3s;
		-o-animation-duration:12.3s;
	}

	.tiempo14 path{
		animation-duration:21.3s;
		-webkit-animation-duration:21.3s;
		-moz-animation-duration:21.3s;
		-o-animation-duration:21.3s;
	}

	.tiempo15 path{
		animation-duration:16.3s;
		-webkit-animation-duration:16.3s;
		-moz-animation-duration:16.3s;
		-o-animation-duration:16.3s;
	}

	.tiempo16 path{
		animation-duration:28.9s;
		-webkit-animation-duration:28.9s;
		-moz-animation-duration:28.9s;
		-o-animation-duration:28.9s;
	}

	.tiempo17 path{
		animation-duration:20.2s;
		-webkit-animation-duration:20.2s;
		-moz-animation-duration:20.2s;
		-o-animation-duration:20.2s;
	}

	.tiempo18 path{
		animation-duration:11.8s;
		-webkit-animation-duration:11.8s;
		-moz-animation-duration:11.8s;
		-o-animation-duration:11.8s;
	}

	.tiempo19 path{
		animation-duration:17.7s;
		-webkit-animation-duration:17.7s;
		-moz-animation-duration:17.7s;
		-o-animation-duration:17.7s;
	}

	.tiempo20 path{
		animation-duration:12.5s;
		-webkit-animation-duration:12.5s;
		-moz-animation-duration:12.5s;
		-o-animation-duration:12.5s;
	}

	.tiempo21 path{
		animation-duration:23.3s;
		-webkit-animation-duration:23.3s;
		-moz-animation-duration:23.3s;
		-o-animation-duration:23.3s;
	}

	.tiempo22 path{
		animation-duration:19.1s;
		-webkit-animation-duration:19.1s;
		-moz-animation-duration:19.1s;
		-o-animation-duration:19.1s;
	}

	.tiempo23 path{
		animation-duration:11.7s;
		-webkit-animation-duration:11.7s;
		-moz-animation-duration:11.7s;
		-o-animation-duration:11.7s;
	}

	.tiempo24 path{
		animation-duration:9.4s;
		-webkit-animation-duration:9.4s;
		-moz-animation-duration:9.4s;
		-o-animation-duration:9.4s;
	}

	.anillos path{
		stroke-dasharray: 80;

	    animation-timing-function: cubic-bezier(.5,-0.84,.48,1.65);
	    animation-iteration-count: infinite;

	 
	    -webkit-animation-timing-function: cubic-bezier(.5,-0.84,.48,1.65);
	    -webkit-animation-iteration-count: infinite;

	    -moz-animation-timing-function: cubic-bezier(.5,-0.84,.48,1.65);
	    -moz-animation-iteration-count: infinite;

	 
	    -o-animation-timing-function: cubic-bezier(.5,-0.84,.48,1.65);
	    -o-animation-iteration-count: infinite;
	}

	.anillos:nth-child(odd) path{
		stroke-dashoffset: 0;
		animation-name: dashed1;
		-webkit-animation-name: dashed1;
		-moz-animation-name: dashed1;
		-o-animation-name: dashed1;
	}

	.anillos:nth-child(even) path{
        stroke-dashoffset: 2000;
		animation-name: dashed2;
		-webkit-animation-name: dashed2;
		-moz-animation-name: dashed2;
		-o-animation-name: dashed2;  
	}

	<!-- ANILLO 1 -->
	.anillos:nth-child(4n-1) path:first-child{
		stroke:#19bbbf;
	
		 
	}
	.anillos:nth-child(4n-1) path:nth-child(2){
		stroke:#c3162e;
	
	}

	<!-- ANILLO 2 -->
	.anillos:nth-child(4n+0) path:first-child{
		stroke:#9516d8;
		
	}
	.anillos:nth-child(4n+0) path:nth-child(2){
		stroke:#e27227;
		
	}

	<!-- ANILLO 3 -->
	.anillos:nth-child(4n+1) path:first-child{
		stroke:#c3162e;
		
	}
	.anillos:nth-child(4n+1) path:nth-child(2){
		stroke:#19bbbf;
		
	}

	<!-- ANILLO 4 -->
	.anillos:nth-child(4n+2) path:first-child{
		stroke:#e27227;
		
	}
	.anillos:nth-child(4n+2) path:nth-child(2){
		stroke:#9516d8;
		
	}

	@-webkit-keyframes dashed1{
		from{
			stroke-dashoffset: 0;
		}

		to{
			stroke-dashoffset: 2000;
		}
	}

	@-webkit-keyframes dashed2{
		from{
			stroke-dashoffset: 2000;
		}

		to{
			stroke-dashoffset: 0;
		}
	}
</style>
<g id="BG">
</g>
<g class="anillos tiempo1">
	<path class="st0" d="M543.862,522.699c3.504,1.917,6.302,17.973,6.389,37.508c0.081,18.233-2.228,33.456-5.371,36.989
		c-0.449,0.505-0.915,0.771-1.393,0.773"/>
	<path class="st1" d="M544.116,597.966c-2.098,0.009-3.873-16.876-3.966-37.714c-0.092-20.838,1.533-37.738,3.631-37.747
		c0.131-0.001,0.261,0.065,0.389,0.193"/>
</g>
<g class="anillos tiempo2">
	<path class="st0" d="M532.409,517.379c3.504,2.053,6.308,19.245,6.401,40.161c0.087,19.522-2.217,35.82-5.359,39.601
		c-0.449,0.54-0.915,0.825-1.393,0.827"/>
	<path class="st1" d="M532.686,597.966c-2.098,0.009-3.878-18.07-3.977-40.38c-0.099-22.311,1.521-40.405,3.619-40.414
		c0.131-0.001,0.261,0.069,0.389,0.207"/>
</g>
<g class="anillos tiempo3">
	<path class="st0" d="M518.544,511.821c3.505,2.196,6.314,20.575,6.413,42.935c0.093,20.87-2.206,38.292-5.347,42.333
		c-0.449,0.577-0.915,0.881-1.393,0.884"/>
	<path class="st1" d="M518.846,597.97c-2.098,0.009-3.884-19.318-3.99-43.169c-0.106-23.851,1.509-43.193,3.607-43.203
		c0.131-0.001,0.261,0.074,0.389,0.221"/>
</g>
<g class="anillos tiempo4">
	<path class="st0" d="M506.633,511.821c3.505,2.196,6.314,20.575,6.413,42.935c0.093,20.87-2.206,38.292-5.347,42.333
		c-0.449,0.577-0.915,0.881-1.393,0.884"/>
	<path class="st1" d="M506.935,597.97c-2.098,0.009-3.884-19.318-3.99-43.169c-0.106-23.851,1.509-43.193,3.607-43.203
		c0.131-0.001,0.261,0.074,0.389,0.221"/>
</g>
<g class="anillos tiempo5">
	<path class="st0" d="M495.601,511.821c3.505,2.196,6.314,20.575,6.413,42.935c0.093,20.87-2.206,38.292-5.347,42.333
		c-0.449,0.577-0.914,0.881-1.393,0.884"/>
	<path class="st1" d="M495.903,597.97c-2.098,0.009-3.884-19.318-3.99-43.169c-0.106-23.851,1.509-43.193,3.607-43.203
		c0.131-0.001,0.261,0.074,0.389,0.221"/>
</g>
<g class="anillos tiempo6">
	<path class="st0" d="M484.718,511.773c3.505,2.197,6.314,20.585,6.413,42.957c0.093,20.88-2.206,38.311-5.347,42.354
		c-0.449,0.578-0.915,0.882-1.393,0.884"/>
	<path class="st1" d="M485.021,597.966c-2.098,0.009-3.884-19.328-3.99-43.191c-0.106-23.863,1.509-43.215,3.607-43.224
		c0.131-0.001,0.261,0.074,0.389,0.221"/>
</g>
<g class="anillos tiempo7">
	<path class="st0" d="M472.811,511.773c3.505,2.197,6.314,20.585,6.413,42.957c0.093,20.88-2.206,38.311-5.347,42.354
		c-0.449,0.578-0.914,0.882-1.393,0.884"/>
	<path class="st1" d="M473.113,597.966c-2.098,0.009-3.884-19.328-3.99-43.191c-0.106-23.863,1.509-43.215,3.607-43.224
		c0.131-0.001,0.261,0.074,0.389,0.221"/>
</g>
<g class="anillos tiempo8">
	<path class="st0" d="M460.135,511.773c3.505,2.197,6.314,20.585,6.413,42.957c0.093,20.88-2.206,38.311-5.347,42.354
		c-0.449,0.578-0.914,0.882-1.393,0.884"/>
	<path class="st1" d="M460.438,597.966c-2.098,0.009-3.884-19.328-3.99-43.191c-0.106-23.863,1.509-43.215,3.607-43.224
		c0.131-0.001,0.261,0.074,0.389,0.221"/>
</g>
<g class="anillos tiempo9">
	<path class="st0" d="M448.014,511.773c3.505,2.197,6.314,20.585,6.413,42.957c0.093,20.88-2.206,38.311-5.347,42.354
		c-0.449,0.578-0.914,0.882-1.393,0.884"/>
	<path class="st1" d="M448.316,597.966c-2.098,0.009-3.884-19.328-3.99-43.191c-0.106-23.863,1.509-43.215,3.607-43.224
		c0.131-0.001,0.261,0.074,0.389,0.221"/>
</g>
<g class="anillos tiempo10">
	<path class="st0" d="M434.726,517.379c3.504,2.053,6.308,19.245,6.401,40.161c0.087,19.522-2.217,35.82-5.359,39.601
		c-0.449,0.54-0.915,0.825-1.393,0.827"/>
	<path class="st1" d="M435.003,597.966c-2.098,0.009-3.878-18.07-3.977-40.38c-0.099-22.311,1.521-40.405,3.619-40.414
		c0.131-0.001,0.261,0.069,0.389,0.207"/>
</g>
<g class="anillos tiempo11">
	<path class="st0" d="M425.21,522.699c3.504,1.917,6.302,17.973,6.389,37.508c0.081,18.233-2.228,33.456-5.371,36.989
		c-0.449,0.505-0.915,0.771-1.394,0.773"/>
	<path class="st1" d="M425.464,597.966c-2.098,0.009-3.873-16.876-3.965-37.714c-0.092-20.838,1.533-37.738,3.631-37.747
		c0.131-0.001,0.261,0.065,0.389,0.193"/>
</g>
<g class="anillos tiempo12">
	<path class="st0" d="M486.117,414.464c5.259-2.988,28.529,6.204,54.245,21.664c24.001,14.43,42.18,29.539,44.358,36.405
		c0.311,0.981,0.296,1.793-0.076,2.412"/>
	<path class="st1" d="M584.271,475.29c-1.63,2.711-25.187-8.46-52.617-24.951c-27.43-16.491-48.345-32.057-46.716-34.768
		c0.102-0.169,0.289-0.285,0.558-0.348"/>
</g>
<g class="anillos tiempo13">
	<path class="st0" d="M499.184,395.606c5.259-2.988,28.529,6.204,54.245,21.664c24.001,14.43,42.18,29.539,44.358,36.405
		c0.311,0.981,0.296,1.793-0.076,2.412"/>
	<path class="st1" d="M597.438,456.408c-1.63,2.711-25.187-8.46-52.617-24.951c-27.43-16.491-48.345-32.057-46.716-34.768
		c0.102-0.169,0.289-0.285,0.558-0.348"/>
</g>
<g class="anillos tiempo14">
	<path class="st0" d="M510.004,382.307c5.259-2.988,28.529,6.204,54.245,21.664c24.001,14.43,42.18,29.539,44.358,36.405
		c0.311,0.981,0.296,1.793-0.076,2.412"/>
	<path class="st1" d="M608.037,443.201c-1.63,2.711-25.187-8.46-52.617-24.951c-27.43-16.491-48.345-32.057-46.716-34.768
		c0.102-0.169,0.289-0.285,0.558-0.348"/>
</g>
<g class="anillos tiempo15">
	<path class="st0" d="M527.103,372.275c4.921-2.796,26.695,5.805,50.758,20.271c22.459,13.502,39.469,27.64,41.507,34.065
		c0.291,0.918,0.277,1.678-0.071,2.257"/>
	<path class="st1" d="M618.51,429.608c-1.525,2.537-23.569-7.916-49.236-23.347c-25.667-15.431-45.238-29.997-43.713-32.533
		c0.095-0.159,0.271-0.266,0.522-0.325"/>
</g>
<g class="anillos tiempo16">
	<path class="st0" d="M540.439,358.815c5.006-3.14,26.172,4.787,49.33,18.709c21.614,12.994,37.801,26.906,39.518,33.495
		c0.245,0.941,0.195,1.733-0.177,2.352"/>
	<path class="st1" d="M628.797,413.631c-1.63,2.711-22.976-7.13-47.677-21.981s-43.405-29.087-41.776-31.798
		c0.102-0.169,0.281-0.29,0.533-0.363"/>
</g>
<g class="anillos tiempo17">
	<path class="st0" d="M557.625,346.758c4.794-3.267,24.194,3.598,45.205,16.229c19.61,11.79,34.126,24.697,35.456,31.053
		c0.19,0.908,0.111,1.682-0.261,2.301"/>
	<path class="st1" d="M637.9,396.717c-1.63,2.711-21.119-6.015-43.531-19.489c-22.412-13.474-39.259-26.594-37.63-29.305
		c0.102-0.169,0.273-0.294,0.511-0.376"/>
</g>
<path class="st0" d="M566.703,331.11c4.794-3.267,24.194,3.598,45.205,16.229c19.61,11.79,34.126,24.697,35.456,31.053
	c0.19,0.908,0.111,1.682-0.261,2.301"/>
<g class="anillos tiempo18">
	<path class="st0" d="M457.419,414.6c-5.018-2.843-27.681,6.713-52.836,22.511c-23.477,14.744-41.346,30.041-43.59,36.866
		c-0.321,0.975-0.322,1.777,0.024,2.38"/>
	<path class="st1" d="M361.684,476.605c1.518,2.644,24.5-8.873,51.332-25.724c26.831-16.851,47.352-32.654,45.833-35.298
		c-0.095-0.165-0.274-0.275-0.532-0.332"/>
</g>
<g class="anillos tiempo19">
	<path class="st0" d="M445.028,396.383c-5.018-2.843-27.681,6.713-52.836,22.511c-23.477,14.744-41.346,30.041-43.59,36.867
		c-0.321,0.975-0.322,1.777,0.024,2.38"/>
	<path class="st1" d="M349.356,458.227c1.518,2.644,24.5-8.873,51.332-25.724c26.831-16.851,47.352-32.654,45.833-35.298
		c-0.095-0.165-0.274-0.275-0.532-0.332"/>
</g>
<g class="anillos tiempo20">
	<path class="st0" d="M434.755,383.472c-5.018-2.843-27.681,6.713-52.836,22.511c-23.477,14.744-41.346,30.041-43.59,36.866
		c-0.321,0.975-0.322,1.777,0.024,2.38"/>
	<path class="st1" d="M339.39,445.4c1.518,2.644,24.5-8.873,51.332-25.724c26.831-16.851,47.352-32.654,45.833-35.298
		c-0.095-0.165-0.274-0.275-0.532-0.332"/>
</g>
<g class="anillos tiempo21">
	<path class="st0" d="M419.013,374.284c-4.695-2.66-25.902,6.282-49.44,21.064c-21.969,13.797-38.688,28.11-40.788,34.497
		c-0.3,0.912-0.302,1.663,0.023,2.227"/>
	<path class="st1" d="M329.554,432.191c1.421,2.474,22.926-8.303,48.033-24.071c25.107-15.768,44.308-30.556,42.888-33.029
		c-0.089-0.155-0.256-0.257-0.498-0.311"/>
</g>
<g class="anillos tiempo22">
	<path class="st0" d="M406.174,360.636c-4.77-2.998-25.376,5.265-48.028,19.492c-21.142,13.278-37.062,27.351-38.856,33.893
		c-0.256,0.935-0.224,1.716,0.122,2.319"/>
	<path class="st1" d="M319.947,416.623c1.518,2.644,22.337-7.515,46.499-22.689c24.163-15.175,42.519-29.62,41.001-32.263
		c-0.095-0.165-0.265-0.28-0.507-0.348"/>
</g>
<g class="anillos tiempo23">
	<path class="st0" d="M389.63,349.274c-4.563-3.129-23.441,4.05-43.994,16.958c-19.182,12.047-33.467,25.093-34.882,31.398
		c-0.202,0.901-0.142,1.664,0.205,2.267"/>
	<path class="st1" d="M311.503,400.105c1.518,2.644,20.521-6.374,42.444-20.142c21.923-13.768,38.464-27.073,36.946-29.716
		c-0.095-0.165-0.258-0.285-0.486-0.361"/>
</g>
<g class="anillos tiempo24">
	<path class="st0" d="M382.56,335.035c-4.563-3.129-23.441,4.05-43.994,16.958c-19.182,12.047-33.467,25.093-34.882,31.398
		c-0.202,0.901-0.142,1.664,0.205,2.267"/>
	<path class="st1" d="M303.433,384.866c1.518,2.644,20.521-6.374,42.444-20.142c21.923-13.768,38.464-27.073,36.946-29.716
		c-0.095-0.165-0.258-0.285-0.486-0.361"/>
</g>

</svg>
