<?xml version="1.0" encoding="utf-8"?>
<!-- Generator: Adobe Illustrator 17.0.0, SVG Export Plug-In . SVG Version: 6.00 Build 0)  -->
<!DOCTYPE svg PUBLIC "-//W3C//DTD SVG 1.1//EN" "http://www.w3.org/Graphics/SVG/1.1/DTD/svg11.dtd">
<svg version="1.1" id="Layer_1" xmlns="http://www.w3.org/2000/svg" xmlns:xlink="http://www.w3.org/1999/xlink" x="0px" y="0px"
	 width="50px" height="50px" viewBox="0 0 50 50" style="enable-background:new 0 0 50 50;" xml:space="preserve">
<style type="text/css">
	.st0{fill:#8dc72a;}
	.st1{fill:#ffffff;}
	.st2{fill:none;stroke:#ffffff;stroke-width:2;stroke-miterlimit:10;}
</style>
<rect class="st0" width="50" height="50"/>
<g>
	<path class="st1" d="M27.574,16.095c0.042,0.496,0.032,0.959-0.033,1.39c-0.022,0.086-0.037,0.157-0.048,0.21
		c-0.012,0.054-0.027,0.113-0.049,0.178c-0.065,0.238-0.129,0.458-0.194,0.663c-0.065,0.205-0.141,0.415-0.227,0.631
		c0,0.022-0.005,0.038-0.016,0.048c-0.012,0.011-0.017,0.038-0.017,0.081c0,0.108-0.016,0.21-0.048,0.307
		c-0.032,0.097-0.07,0.199-0.113,0.307c-0.044,0.108-0.076,0.21-0.097,0.307c-0.022,0.097-0.044,0.199-0.065,0.307
		c-0.022,0.173-0.086,0.377-0.194,0.614c-0.108,0.238-0.118,0.442-0.032,0.614c-0.194,0.194-0.259,0.399-0.194,0.614
		c0,0.043-0.011,0.097-0.032,0.161c-0.022,0.065-0.054,0.119-0.097,0.162c-0.151,0.215-0.27,0.431-0.356,0.646
		c-0.022,0.022-0.032,0.055-0.032,0.097c0.022,0.044,0.065,0.098,0.13,0.162c-0.022,0.043-0.044,0.08-0.065,0.113
		c-0.022,0.032-0.043,0.07-0.065,0.113c-0.151,0.108-0.247,0.281-0.29,0.518c-0.044,0.086-0.076,0.172-0.097,0.258
		c-0.022,0.087-0.054,0.173-0.097,0.259c0,0.065-0.005,0.129-0.016,0.194c-0.011,0.065-0.016,0.119-0.016,0.162
		c0.065,0.302,0.065,0.593,0,0.873c-0.043,0.108-0.076,0.204-0.097,0.29c-0.022,0.087-0.043,0.184-0.065,0.291
		c-0.043,0.129-0.076,0.238-0.097,0.324c0.021,0.022,0.032,0.038,0.032,0.048c0,0.012,0.011,0.027,0.032,0.049
		c-0.022,0.022-0.038,0.054-0.048,0.097c-0.011,0.044-0.038,0.087-0.081,0.129c-0.173,0.259-0.291,0.561-0.356,0.906
		c0,0.065-0.011,0.108-0.032,0.129c-0.043,0.043-0.076,0.097-0.097,0.161c-0.022,0.065-0.054,0.119-0.097,0.162
		c-0.043,0.151-0.119,0.226-0.226,0.226c-0.065,0-0.097,0.044-0.097,0.129c-0.043,0.173-0.119,0.303-0.226,0.388
		c-0.129,0.13-0.226,0.141-0.291,0.032c-0.043,0.044-0.065,0.076-0.065,0.098L23.37,29.58c-0.065,0.129-0.151,0.205-0.259,0.226
		c-0.173,0-0.302,0.076-0.388,0.227c-0.065,0.108-0.129,0.205-0.194,0.29c-0.065,0.087-0.119,0.184-0.162,0.291
		c-0.043,0.129-0.086,0.222-0.13,0.275c-0.043,0.055-0.129,0.07-0.259,0.049c-0.043,0-0.086-0.017-0.13-0.049
		c-0.043-0.032-0.086-0.048-0.129-0.048c-0.108,0.086-0.178,0.194-0.21,0.323c-0.032,0.13-0.103,0.248-0.21,0.356
		c-0.043-0.086-0.07-0.167-0.081-0.242c-0.01-0.075-0.037-0.167-0.081-0.275c-0.13-0.043-0.221-0.118-0.275-0.226
		c-0.054-0.108-0.081-0.227-0.081-0.356c-0.021-0.324,0-0.69,0.065-1.1c0.065-0.301,0.135-0.593,0.21-0.873
		c0.076-0.28,0.145-0.56,0.21-0.841c0.194-0.517,0.366-1.002,0.517-1.455c0.065-0.172,0.118-0.356,0.162-0.55
		c0.043-0.194,0.086-0.377,0.129-0.55c0.108-0.431,0.21-0.857,0.307-1.277c0.097-0.42,0.199-0.846,0.307-1.278
		c0.043-0.108,0.091-0.226,0.146-0.355c0.053-0.13,0.102-0.248,0.146-0.356c0-0.043,0.005-0.07,0.016-0.081
		c0.01-0.011,0.016-0.038,0.016-0.081c0.021-0.129,0.059-0.264,0.113-0.404c0.054-0.14,0.102-0.275,0.146-0.404
		c0.13-0.194,0.221-0.393,0.275-0.598c0.054-0.205,0.124-0.404,0.21-0.598c0.151-0.366,0.302-0.744,0.453-1.132
		c0.151-0.388,0.324-0.765,0.518-1.132c0.151-0.302,0.264-0.587,0.339-0.857c0.075-0.269,0.167-0.554,0.275-0.857
		c0.086,0.065,0.129,0.151,0.129,0.259c0.022-0.022,0.055-0.033,0.098-0.033c0.065,0,0.108-0.01,0.129-0.032
		c0.022,0.043,0.049,0.07,0.081,0.081c0.032,0.011,0.059,0.038,0.081,0.081c0,0.022,0.032,0.011,0.097-0.032
		c0.065-0.043,0.134-0.086,0.21-0.13c0.075-0.043,0.146-0.065,0.21-0.065s0.108,0.043,0.129,0.13
		c0.151-0.022,0.312-0.011,0.485,0.032c0.172,0.043,0.238,0.183,0.194,0.42c0.043-0.108,0.091-0.205,0.146-0.291
		c0.053-0.086,0.134-0.14,0.242-0.161V16.095z M27.961,12.279c0,0.043,0.006,0.076,0.017,0.097c0.011,0.022,0.017,0.054,0.017,0.097
		v0.129c0,0.065-0.012,0.119-0.033,0.162c0.065,0,0.065,0.032,0,0.097l-0.097,0.097v0.129c-0.022,0.022-0.032,0.044-0.032,0.065
		l-0.065-0.065c-0.043,0-0.097,0.033-0.161,0.097c-0.022,0.043-0.065,0.097-0.13,0.162c0,0.043,0.011,0.065,0.032,0.065v0.032
		c0,0.022-0.011,0.032-0.032,0.032c0,0.022-0.005,0.032-0.016,0.032c-0.012,0-0.017,0.011-0.017,0.033
		c0,0.065,0.011,0.108,0.032,0.129v0.032c-0.022,0.022-0.032,0.054-0.032,0.097c-0.043,0.065-0.075,0.108-0.097,0.129
		c-0.022,0.022-0.032,0.043-0.032,0.065c0,0.022-0.011,0.043-0.032,0.065c-0.044,0.043-0.087,0.076-0.129,0.097
		c-0.044,0.022-0.098,0.043-0.162,0.065l-0.032,0.032h-0.032c-0.022-0.021-0.054-0.032-0.097-0.032c0,0.086-0.032,0.119-0.097,0.097
		c-0.022,0.022-0.087,0.032-0.194,0.032c-0.022,0.022-0.032,0.038-0.032,0.049s-0.011,0.027-0.032,0.048l-0.032,0.065
		c0-0.043-0.022-0.065-0.065-0.065v0.355c-0.022-0.021-0.076-0.01-0.162,0.033c0,0.043-0.022,0.086-0.065,0.129
		c-0.022,0-0.032,0.006-0.032,0.016c0,0.011-0.011,0.016-0.032,0.016c-0.043,0.043-0.065,0.033-0.065-0.032
		c0.065-0.065,0.097-0.118,0.097-0.162l0.097-0.097c-0.022-0.043,0.011-0.086,0.098-0.13H26.28c0-0.021,0.005-0.037,0.016-0.048
		c0.011-0.01,0.017-0.027,0.017-0.048v-0.097c0-0.043-0.032-0.065-0.098-0.065c-0.022,0-0.043-0.005-0.065-0.016
		c-0.022-0.01-0.043-0.016-0.065-0.016h-0.032c-0.043,0.022-0.07,0.038-0.081,0.048c-0.011,0.011-0.037,0.027-0.08,0.049
		c0-0.043,0.01-0.075,0.032-0.097c0.043,0,0.043-0.021,0-0.065c-0.022,0.022-0.032,0.043-0.032,0.065H25.86
		c-0.022,0-0.033-0.011-0.033-0.032l-0.065-0.065h-0.065c0,0.022-0.016,0.027-0.048,0.016c-0.032-0.011-0.038,0.005-0.017,0.048
		c0.043,0.043,0.032,0.065-0.032,0.065c-0.022,0.022-0.032,0.038-0.032,0.048c0,0.011-0.012,0.027-0.032,0.049
		c-0.022,0-0.032-0.022-0.032-0.065c0.022-0.021,0.022-0.053,0-0.097l-0.065-0.065c0-0.065,0.01-0.118,0.031-0.162
		c0.022-0.065,0.012-0.118-0.031-0.162c-0.022,0-0.044-0.011-0.065-0.032v0.097v0.065c-0.043,0.022-0.065,0.065-0.065,0.129
		c0,0.022-0.006,0.038-0.017,0.049c-0.011,0.011-0.016,0.027-0.016,0.048c0,0.022,0.005,0.038,0.016,0.048
		c0.011,0.011,0.017,0.027,0.017,0.048c-0.022,0.022-0.033,0.065-0.033,0.13c-0.022,0.043-0.027,0.07-0.016,0.081
		c0.011,0.011,0.016,0.027,0.016,0.048c0,0.043,0.011,0.076,0.033,0.097v0.226v0.097c-0.043,0.043-0.043,0.065,0,0.065
		c0.021,0,0.032,0.005,0.032,0.016c0,0.011,0.01,0.016,0.032,0.016c0,0.065,0.021,0.097,0.065,0.097
		c0.086,0,0.129-0.021,0.129-0.065h0.032l0.032,0.065c0,0.022-0.022,0.032-0.065,0.032l-0.032,0.065h-0.065
		c-0.022-0.022-0.037-0.032-0.048-0.032c-0.011,0-0.027-0.011-0.048-0.033l-0.032,0.033c-0.022-0.022-0.032-0.043-0.032-0.065
		c0-0.086-0.033-0.129-0.097-0.129c0.043-0.043,0.059-0.081,0.048-0.113c-0.011-0.032-0.016-0.07-0.016-0.113
		c-0.022-0.022-0.022-0.065,0-0.13l-0.065-0.13c-0.022-0.021-0.032-0.065-0.032-0.129c0.021-0.021,0.032-0.054,0.032-0.097
		c0-0.065,0.021-0.108,0.065-0.129H25.18l-0.032-0.032c0-0.022,0.01-0.033,0.032-0.033c0.021-0.021,0.032-0.043,0.032-0.065v-0.032
		c0.043-0.043,0.065-0.108,0.065-0.194c0-0.065,0.011-0.108,0.033-0.129c0.021,0,0.032-0.033,0.032-0.097l0.065-0.065V13.54h-0.032
		c-0.022,0-0.043-0.011-0.065-0.033c0.043-0.043,0.086-0.108,0.13-0.194c0.021-0.065,0.031-0.162,0.031-0.291
		c0-0.065-0.031-0.108-0.096-0.129c-0.086-0.022-0.151-0.108-0.194-0.259c0-0.043,0.021-0.086,0.065-0.129
		c0.065-0.043,0.13-0.065,0.194-0.065c0.065,0,0.129-0.021,0.194-0.065c0-0.086,0.043-0.162,0.129-0.226
		c0.022-0.021,0.022-0.053,0-0.097c0-0.043,0.011-0.075,0.032-0.097c0.022-0.021,0.032-0.037,0.032-0.048
		c0-0.011,0.011-0.027,0.033-0.048v-0.032c-0.065-0.086-0.044-0.13,0.065-0.13c0.021,0.108,0.011,0.162-0.032,0.162v0.065h0.065
		c0.021,0,0.043-0.011,0.065-0.032c0-0.043,0.022-0.086,0.065-0.13c0.022,0,0.032-0.01,0.032-0.032h-0.032
		c-0.022-0.021-0.043-0.032-0.065-0.032c-0.065,0-0.076-0.032-0.032-0.097l0.032,0.032c0.022,0,0.032,0.011,0.032,0.032
		c0.022,0,0.032-0.011,0.032-0.032s0.022-0.054,0.065-0.097c0.022,0,0.032-0.032,0.032-0.097l0.065,0.129
		c0.065-0.065,0.098-0.14,0.098-0.226h0.032c0,0.065,0.011,0.108,0.032,0.13c0.043-0.021,0.059-0.043,0.048-0.065
		c-0.011-0.022-0.005-0.043,0.017-0.065c0.022,0,0.032-0.01,0.032-0.032c0.022,0,0.032,0.011,0.032,0.032
		c0.022,0.065,0.054,0.086,0.097,0.065v0.032h0.098v-0.032c0.043,0.022,0.091,0.027,0.145,0.016
		c0.054-0.011,0.103-0.005,0.146,0.016l0.032,0.032c0.043,0,0.065,0.011,0.065,0.032h0.065l0.032-0.032
		c0-0.065-0.012-0.108-0.032-0.13v-0.065h0.032l0.032,0.065c0.043,0,0.065,0.011,0.065,0.032c0,0.044,0.022,0.086,0.065,0.13v0.065
		c0,0.022,0.022,0.054,0.065,0.097c0.086,0.043,0.108,0.108,0.065,0.194c0,0.043,0.022,0.076,0.065,0.097
		c0.129,0.086,0.226,0.162,0.29,0.226L27.961,12.279z M25.892,14.93c0.065,0.065,0.043,0.097-0.065,0.097h-0.065
		c0,0.022-0.032,0.032-0.097,0.032c0-0.022,0.011-0.032,0.032-0.032c0.022-0.043,0.027-0.081,0.017-0.113
		c-0.012-0.032-0.017-0.07-0.017-0.113l-0.065,0.13c-0.043-0.13-0.065-0.215-0.065-0.259c0-0.021,0.022-0.054,0.065-0.097
		c-0.022-0.021-0.032-0.043-0.032-0.065c0-0.021-0.011-0.053-0.032-0.097l0.032-0.032c0.022,0.022,0.043,0.032,0.065,0.032
		c0,0.022-0.011,0.043-0.032,0.065c0.043,0.043,0.065,0.076,0.065,0.097c-0.043,0.108-0.011,0.194,0.097,0.259L25.892,14.93z
		 M26.054,14.348c-0.022,0.043-0.032,0.076-0.032,0.097c0,0.022-0.006,0.032-0.017,0.032c-0.011,0-0.016,0.011-0.016,0.032
		c0-0.021-0.012-0.032-0.032-0.032c0-0.043,0.011-0.065,0.032-0.065C25.989,14.327,26.01,14.306,26.054,14.348z M26.215,14.575
		c-0.022,0-0.032,0.006-0.032,0.017c0,0.011-0.011,0.016-0.032,0.016c-0.022-0.022-0.032-0.054-0.032-0.097
		c0-0.043,0.022-0.043,0.065,0v0.032L26.215,14.575z M26.474,14.801c0.043,0,0.065,0.022,0.065,0.065L26.474,14.801z M26.701,11.373
		c-0.065,0.065-0.098,0.054-0.098-0.032c0-0.043,0.022-0.065,0.065-0.065h0.098h0.032L26.701,11.373z M26.798,14.769v0.032
		c-0.022,0.022-0.055,0.033-0.097,0.033c0.021-0.022,0.026-0.043,0.016-0.065c-0.011-0.021,0.005-0.032,0.049-0.032L26.798,14.769z
		 M26.991,11.341c-0.043,0-0.065-0.021-0.065-0.065c0-0.043,0.032-0.065,0.097-0.065c0.065,0.022,0.098,0.065,0.098,0.129H26.991z
		 M27.023,14.672c0.022,0.043,0.022,0.076,0,0.097c-0.043,0.043-0.075,0.043-0.097,0L27.023,14.672z M27.088,14.672l0.033-0.032
		h0.097c0,0.022-0.032,0.065-0.097,0.129C27.099,14.748,27.088,14.715,27.088,14.672z M27.315,14.51
		c0.022,0.043,0.011,0.086-0.032,0.13C27.239,14.618,27.25,14.575,27.315,14.51z M27.476,14.284c0,0.022,0.005,0.032,0.017,0.032
		c0.011,0,0.016,0.011,0.016,0.032c-0.043,0.043-0.065,0.076-0.065,0.097c-0.022,0.022-0.043,0.032-0.065,0.032v-0.065
		c0-0.022,0.005-0.038,0.017-0.049c0.01-0.01,0.016-0.037,0.016-0.081H27.476z M27.444,11.761c-0.022,0.022-0.027,0.049-0.016,0.081
		c0.011,0.032,0.026,0.048,0.048,0.048C27.476,11.848,27.465,11.805,27.444,11.761z M27.476,13.249
		c0.022-0.021,0.032-0.037,0.032-0.048c0-0.011,0.011-0.027,0.032-0.048C27.455,13.152,27.433,13.184,27.476,13.249z M27.735,14.025
		c0.043,0.043,0.054,0.065,0.032,0.065c0,0.086-0.032,0.119-0.097,0.097c0.021-0.043,0.032-0.07,0.032-0.081
		C27.703,14.095,27.714,14.069,27.735,14.025z"/>
</g>
<circle class="st2" cx="25" cy="21.304" r="15.113"/>
</svg>
