<svg version="1.1" id="Layer_1" xmlns="http://www.w3.org/2000/svg" xmlns:xlink="http://www.w3.org/1999/xlink" x="0px" y="0px"
	 width="100%" height="100%" viewBox="0 0 960 600" style="enable-background:new 0 0 960 600;" xml:space="preserve">
<defs>
	<style type="text/css">
		.st0{
			fill:none;stroke:#720E23;stroke-width:1;stroke-miterlimit:10;stroke-linecap:round;
		}

		.st0:nth-child(even){
			stroke-dasharray: 110;
	        stroke-dashoffset: 450;
	        -webkit-animation: dash 2s cubic-bezier(.5,-0.84,.48,1.65) infinite;
	        -o-animation: dash 2s cubic-bezier(.5,-0.84,.48,1.65) infinite;
	        -moz-animation: dash 2s cubic-bezier(.5,-0.84,.48,1.65) infinite;
	        animation: dash 2s cubic-bezier(.5,-0.84,.48,1.65) infinite;
		}

		.st0:nth-child(odd){
			stroke-dasharray: 110;
	        stroke-dashoffset: 450;
	        -webkit-animation: dash 2s cubic-bezier(.5,-0.84,.48,1.65) infinite;
	        -o-animation: dash 2s cubic-bezier(.5,-0.84,.48,1.65) infinite;
	        -moz-animation: dash 2s cubic-bezier(.5,-0.84,.48,1.65) infinite;
	        animation: dash 2s cubic-bezier(.5,-0.84,.48,1.65) infinite;
		}



		.st1{
			fill:none;stroke:#D82745;stroke-width:3;stroke-miterlimit:10;stroke-linecap:round;
		}

		.st1:nth-child(even){
			stroke-dasharray: 110;
	        stroke-dashoffset: 450;
	        -webkit-animation: dash 2s cubic-bezier(.5,-0.84,.48,1.65) infinite;
	        -o-animation: dash 2s cubic-bezier(.5,-0.84,.48,1.65) infinite;
	        -moz-animation: dash 2s cubic-bezier(.5,-0.84,.48,1.65) infinite;
	        animation: dash 2s cubic-bezier(.5,-0.84,.48,1.65) infinite;
		}

		@-webkit-keyframes dash{
			from{
				stroke-dashoffset: 450;
			}

			to{
				stroke-dashoffset: 10;
			}
		}
		
	</style>
</defs>
<g id="BG">
</g>
<g class="alternateson">
	<path class="st0" d="M340.001,253.962c6.718-13.225,62.58-23.545,130.499-23.545c63.391,0,116.28,8.99,128.512,20.941
		c1.747,1.707,2.665,3.475,2.665,5.285"/>
	<path class="st0" d="M343.121,277.391c6.557-12.908,61.084-22.982,127.379-22.982c61.875,0,113.5,8.775,125.439,20.44
		c1.706,1.666,2.601,3.392,2.601,5.159"/>
	<path class="st0" d="M352.037,301.377c6.098-12.005,56.809-21.373,118.463-21.373c57.544,0,105.555,8.161,116.659,19.009
		c1.586,1.55,2.419,3.154,2.419,4.798"/>
	<path class="st0" d="M365.926,326.522c5.383-10.597,50.148-18.867,104.574-18.867c50.798,0,93.18,7.204,102.981,16.781
		c1.4,1.368,2.136,2.785,2.136,4.235"/>
	<path class="st0" d="M426.744,377.144c2.252-4.434,20.983-7.894,43.756-7.894c21.255,0,38.988,3.014,43.09,7.021
		c0.586,0.572,0.894,1.165,0.894,1.772"/>
	<path class="st0" d="M391.653,354.087c4.059-7.99,37.811-14.226,78.847-14.226c38.301,0,70.256,5.432,77.646,12.652
		c1.056,1.032,1.61,2.1,1.61,3.193"/>
	<path class="st0" d="M339.016,231.321c6.768-13.325,63.053-23.722,131.484-23.722c63.869,0,117.157,9.058,129.482,21.099
		c1.761,1.72,2.685,3.501,2.685,5.325"/>
	<path class="st0" d="M342.374,211.436c6.595-12.984,61.442-23.116,128.126-23.116c62.238,0,114.165,8.826,126.174,20.56
		c1.716,1.676,2.617,3.412,2.617,5.189"/>
	<path class="st0" d="M346.631,190.355c6.376-12.553,59.401-22.348,123.869-22.348c60.17,0,110.372,8.533,121.982,19.877
		c1.659,1.621,2.53,3.298,2.53,5.017"/>
	<path class="st0" d="M354.472,169.944c5.973-11.758,55.641-20.934,116.028-20.934c56.361,0,103.385,7.993,114.26,18.618
		c1.554,1.518,2.37,3.09,2.37,4.699"/>
	<path class="st0" d="M368.043,147.882c5.274-10.383,49.133-18.485,102.457-18.485c49.769,0,91.293,7.058,100.896,16.441
		c1.372,1.34,2.092,2.728,2.092,4.15"/>
	<path class="st0" d="M380.976,130.551c4.608-9.072,42.931-16.152,89.524-16.152c43.487,0,79.769,6.167,88.16,14.366
		c1.199,1.171,1.828,2.384,1.828,3.626"/>
	<path class="st0" d="M397.57,116.15c3.754-7.391,34.973-13.158,72.93-13.158c35.426,0,64.984,5.024,71.819,11.703
		c0.977,0.954,1.489,1.942,1.489,2.954"/>
	<path class="st0" d="M420.91,104.194c2.553-5.025,23.78-8.947,49.59-8.947c24.089,0,44.186,3.416,48.834,7.957
		c0.664,0.649,1.013,1.32,1.013,2.008"/>
	<path class="st0" d="M442.268,95.546c1.453-2.861,13.538-5.094,28.232-5.094c13.714,0,25.155,1.945,27.802,4.53
		c0.378,0.369,0.577,0.752,0.577,1.143"/>
	<path class="st1" d="M598.54,278.87c0,14.138-57.326,25.599-128.04,25.599s-128.04-11.461-128.04-25.599
		c0-0.884,0.224-1.757,0.661-2.617"/>
	<path class="st1" d="M589.578,302.753c0,13.148-53.313,23.807-119.078,23.807s-119.078-10.659-119.078-23.807
		c0-0.822,0.208-1.634,0.615-2.434"/>
	<path class="st1" d="M575.617,327.736c0,11.607-47.062,21.016-105.117,21.016s-105.117-9.409-105.117-21.016
		c0-0.725,0.184-1.442,0.543-2.149"/>
	<path class="st1" d="M549.756,355.002c0,8.751-35.484,15.846-79.256,15.846s-79.256-7.094-79.256-15.846
		c0-0.547,0.139-1.087,0.409-1.62"/>
	<path class="st1" d="M514.483,377.653c0,4.857-19.692,8.794-43.983,8.794c-24.291,0-43.983-3.937-43.983-8.794
		c0-0.304,0.077-0.603,0.227-0.899"/>
	<path class="st1" d="M602.667,232.848c0,14.594-59.173,26.424-132.167,26.424s-132.167-11.83-132.167-26.424
		c0-0.912,0.231-1.813,0.682-2.702"/>
	<path class="st1" d="M599.291,212.924c0,14.221-57.661,25.749-128.791,25.749s-128.791-11.528-128.791-25.749
		c0-0.889,0.225-1.767,0.665-2.633"/>
	<path class="st1" d="M595.012,191.793c0,13.748-55.746,24.894-124.512,24.894s-124.512-11.145-124.512-24.894
		c0-0.859,0.218-1.708,0.643-2.545"/>
	<path class="st1" d="M587.13,171.292c0,12.878-52.217,23.318-116.63,23.318s-116.63-10.44-116.63-23.318
		c0-0.805,0.204-1.6,0.602-2.384"/>
	<path class="st1" d="M573.489,149.071c0,11.372-46.11,20.59-102.989,20.59s-102.989-9.219-102.989-20.59
		c0-0.711,0.18-1.413,0.532-2.105"/>
	<path class="st1" d="M560.489,131.591c0,9.936-40.289,17.991-89.989,17.991s-89.989-8.055-89.989-17.991
		c0-0.621,0.157-1.235,0.465-1.84"/>
	<path class="st1" d="M543.809,114.997c0,8.095-32.821,14.657-73.309,14.657s-73.309-6.562-73.309-14.657
		c0-0.506,0.128-1.006,0.378-1.499"/>
	<path class="st1" d="M520.347,103.77c0,5.504-22.317,9.966-49.847,9.966c-27.53,0-49.847-4.462-49.847-9.966
		c0-0.344,0.087-0.684,0.257-1.019"/>
	<path class="st1" d="M498.878,95.874c0,3.133-12.705,5.674-28.378,5.674c-15.673,0-28.378-2.54-28.378-5.674
		c0-0.196,0.05-0.389,0.147-0.58"/>
	<path class="st1" d="M601.677,255.477c0,14.484-58.73,26.226-131.177,26.226s-131.177-11.742-131.177-26.226
		c0-0.905,0.229-1.8,0.677-2.681"/>
</g>
</svg>
