<svg version="1.1" xmlns="http://www.w3.org/2000/svg" xmlns:xlink="http://www.w3.org/1999/xlink" x="0px" y="0px" width="100%"
	 height="100%" viewBox="0 0 960 600" style="enable-background:new 0 0 960 600;" xml:space="preserve">
<defs>

	<style type="text/css">
		.st0{
			display:none;
		}

		<!-- contorno -->
		.st1{
			fill:none;stroke:#C3162E;stroke-miterlimit:10;stroke-linecap:round;

		}

		<!-- background red -->
		.st2{
			fill:none;stroke:#720E23;stroke-width:1;stroke-miterlimit:10;stroke-linecap:round;

			stroke-dasharray: 100;
	        stroke-dashoffset: 0;
	        -webkit-animation: dashbackred 5s ease-in-out infinite;
	        -o-animation: dashbackred 5s ease-in-out infinite;
	        -moz-animation: dashbackred 5s ease-in-out infinite;
	        animation: dashbackred 5s ease-in-out infinite;

		}

		@-webkit-keyframes dashbackred{
			from{
				stroke-dashoffset: 2500;
			}

			to{
				stroke-dashoffset: 0;
			}
		}

		.st2-2{
			fill:none;stroke:#720E23;stroke-width:1;stroke-miterlimit:10;stroke-linecap:round;

			stroke-dasharray: 50;
	        stroke-dashoffset: 0;
	        -webkit-animation: dashbackreds 5s ease-in-out infinite;
	        -o-animation: dashbackreds 5s ease-in-out infinite;
	        -moz-animation: dashbackreds 5s ease-in-out infinite;
	        animation: dashbackreds 5s ease-in-out infinite;

		}

		@-webkit-keyframes dashbackreds{
			from{
				stroke-dashoffset: 0;
			}

			to{
				stroke-dashoffset: 200;
			}
		}


		<!-- frontground body red -->
		.st3{
			fill:none;stroke:#C3162E;stroke-width:3;stroke-miterlimit:10;stroke-linecap:round;

		}

		<!-- background body blue -->
		.st4{
			fill:none;stroke:#0F696D;stroke-width:1;stroke-miterlimit:10;stroke-linecap:round;

		}
		
		<!-- frontground body blue -->
		.st5{
			fill:none;stroke:#19BBBF;stroke-width:3;stroke-miterlimit:10;stroke-linecap:round;

		}

		.st6{
			display:inline;fill:#FFFFFF;stroke:#C3162E;stroke-miterlimit:10;stroke-linecap:round;

		}

		<!-- frontground head red -->
		.st7{
			fill:none;stroke:#D82745;stroke-width:3;stroke-miterlimit:10;stroke-linecap:round;

		}

		@-webkit-keyframes dash{
			
			0%{
				stroke-dashoffset: 2100;
			}
			100%{
				stroke-dashoffset: 0;
			}
			
		}

	</style>
</defs>
<g id="BG">
</g>
<g id="Escultura" class="st0">
	
		<image style="display:inline;overflow:visible;opacity:0.6;" width="10140" height="6900" xlink:href="4E62EF373A29176B.jpg"  transform="matrix(0.0945 0 0 0.0945 0 -54)">
	</image>
</g>
<g id="Esqueleto">
	<path class="st1" d="M603,239.333c0,82.475-62.561,149.333-132.333,149.333s-132.333-66.859-132.333-149.333S400.895,90,470.667,90
		S603,156.859,603,239.333z"/>
	<path class="st1" d="M386,521.986c0,0,0.51,8.462-8.407,34.979C364.095,597.104,358,606.5,358,606.5L250.888,449.348
		c0,0-4.682-19.344,29.648-44.399c25.964-18.949,35.023,2.183,35.023,2.183L386,521.986z"/>
	<path class="st1" d="M574.333,508c0,0,11.647,28.238,20,49.868c17.953,46.487,20.091,34.943,20.091,34.943l69.909-166.144
		c0,0,3.62-14.775-13.333-29.608c-31.901-27.912-43.691-7.246-43.691-7.246L574.333,508z"/>
	<path class="st1" d="M380.333,502L311,392.667c0,0,4-34.667,56-45.333c0,0,50,55.45,97.333,49.725L476,594.667l-40.333,3.302
		L380.333,502z"/>
	<path class="st1" d="M572.61,501L627,381.449c0,0,7-28.449-44-43.449c0,0-70.057,64.783-117.39,59.058l12.333,197.608l57.333,3.302
		L572.61,501z"/>
</g>
<g id="Interior">
</g>
<g id="Brazos_Horizontal">
	<g>
		<g>
			<path class="st2" d="M323.32,555.385c-4.975-11.241,2.742-27.373,18.304-37.25c14.525-9.218,31.071-9.932,39.76-2.435
				c1.241,1.071,2.322,2.309,3.214,3.715"/>
			<path class="st2" d="M335.575,573.114c-4.856-10.972,2.676-26.719,17.866-36.359c14.177-8.998,30.328-9.694,38.809-2.377
				c1.212,1.045,2.267,2.254,3.137,3.626"/>
			<path class="st2" d="M347.575,588.114c-4.856-10.972,2.676-26.719,17.866-36.359c14.177-8.998,30.328-9.694,38.809-2.377
				c1.212,1.045,2.267,2.254,3.137,3.626"/>
			<path class="st2" d="M311.943,537.957c-5.012-11.325,2.763-27.58,18.442-37.531c14.634-9.288,31.305-10.007,40.06-2.454
				c1.251,1.079,2.34,2.327,3.238,3.743"/>
			<path class="st2" d="M302.918,522.035c-4.884-11.036,2.692-26.875,17.971-36.572c14.26-9.05,30.506-9.751,39.037-2.391
				c1.219,1.051,2.28,2.267,3.156,3.647"/>
		</g>
		<g>
			<path class="st3" d="M394.828,537.12c6.964,10.973-0.526,28.204-16.729,38.487c-16.203,10.283-34.983,9.724-41.946-1.249
				c-0.435-0.686-0.814-1.396-1.138-2.127"/>
			<path class="st3" d="M406.828,552.121c6.964,10.973-0.526,28.203-16.729,38.487c-16.203,10.283-34.983,9.724-41.946-1.249
				c-0.435-0.686-0.814-1.396-1.138-2.127"/>
			<path class="st3" d="M373.105,500.803c7.188,11.326-0.543,29.112-17.268,39.727c-16.725,10.614-36.11,10.037-43.298-1.289
				c-0.449-0.708-0.84-1.441-1.174-2.196"/>
			<path class="st3" d="M362.518,485.831c7.004,11.037-0.529,28.369-16.827,38.712s-35.188,9.781-42.192-1.256
				c-0.438-0.69-0.819-1.404-1.144-2.14"/>
			<path class="st3" d="M384.024,518.509c7.134,11.241-0.539,28.894-17.139,39.429c-16.6,10.535-35.84,9.962-42.974-1.279
				c-0.446-0.703-0.834-1.43-1.166-2.18"/>
		</g>
	</g>
	<g>
		<g>
			<path class="st2" d="M281.314,487.809c-4.975-11.241,2.742-27.373,18.304-37.25c14.525-9.218,31.071-9.932,39.76-2.435
				c1.241,1.071,2.322,2.309,3.214,3.715"/>
			<path class="st2" d="M293.568,505.538c-4.856-10.972,2.676-26.719,17.866-36.359c14.177-8.998,30.328-9.694,38.809-2.377
				c1.212,1.045,2.267,2.254,3.137,3.626"/>
			<path class="st2" d="M269.936,470.381c-5.012-11.325,2.763-27.58,18.442-37.531c14.634-9.288,31.305-10.007,40.06-2.454
				c1.251,1.079,2.34,2.327,3.238,3.743"/>
			<path class="st2" d="M260.912,454.46c-4.884-11.036,2.692-26.875,17.971-36.572c14.26-9.05,30.506-9.751,39.037-2.391
				c1.219,1.051,2.28,2.267,3.156,3.647"/>
			<path class="st2" d="M261.486,438.934c-2.397-6.351,4.512-16.879,16.292-24.355c10.994-6.977,22.588-8.984,27.928-5.259
				c0.763,0.532,1.398,1.181,1.886,1.95"/>
			<path class="st2" d="M261.83,427.216c-1.387-3.966,4.303-11.675,13.388-17.867c8.48-5.779,17.108-8.321,20.809-6.406
				c0.529,0.274,0.957,0.638,1.27,1.097"/>
		</g>
		<g>
			<path class="st3" d="M352.821,469.545c6.964,10.973-0.526,28.204-16.729,38.487c-16.203,10.283-34.983,9.724-41.946-1.249
				c-0.435-0.686-0.814-1.396-1.138-2.127"/>
			<path class="st3" d="M331.098,433.227c7.188,11.326-0.543,29.112-17.268,39.727c-16.725,10.614-36.11,10.037-43.298-1.289
				c-0.449-0.708-0.84-1.441-1.174-2.196"/>
			<path class="st3" d="M320.511,418.255c7.004,11.037-0.529,28.369-16.827,38.712c-16.298,10.343-35.188,9.781-42.192-1.256
				c-0.438-0.69-0.819-1.404-1.144-2.14"/>
			<path class="st3" d="M306.293,409.607c4.254,6.704-2.493,18.609-15.072,26.592c-12.578,7.983-26.224,9.02-30.478,2.316
				c-0.266-0.419-0.489-0.858-0.67-1.316"/>
			<path class="st3" d="M297.189,402.782c3.352,4.612-1.551,13.889-10.95,20.72c-9.399,6.831-19.736,8.631-23.088,4.019
				c-0.21-0.288-0.387-0.595-0.533-0.918"/>
			<path class="st3" d="M342.017,450.933c7.134,11.241-0.539,28.894-17.139,39.429s-35.84,9.962-42.974-1.279
				c-0.446-0.703-0.834-1.43-1.166-2.18"/>
		</g>
	</g>
	<g>
		<g>
			<path class="st4" d="M576.436,504.674c6.503-10.421,23.762-13.205,40.109-6.029c15.257,6.698,24.665,19.852,23.193,31.203
				c-0.21,1.622-0.643,3.206-1.311,4.73"/>
			<path class="st4" d="M568.53,524.723c6.348-10.172,23.193-12.889,39.15-5.885c14.892,6.538,24.075,19.378,22.639,30.457
				c-0.205,1.583-0.627,3.13-1.28,4.617"/>
			<path class="st4" d="M562.712,543.023c6.348-10.172,23.193-12.889,39.149-5.885c14.892,6.538,24.075,19.378,22.639,30.457
				c-0.205,1.583-0.627,3.13-1.28,4.617"/>
			<path class="st4" d="M584.564,485.514c6.552-10.5,23.941-13.305,40.411-6.074c15.372,6.748,24.851,20.002,23.368,31.439
				c-0.212,1.634-0.647,3.231-1.321,4.766"/>
			<path class="st4" d="M592.72,469.132c6.385-10.232,23.329-12.965,39.379-5.919c14.98,6.576,24.216,19.491,22.772,30.636
				c-0.206,1.592-0.631,3.148-1.288,4.644"/>
		</g>
		<g>
			<path class="st5" d="M629.459,552.955c-5.224,11.9-23.256,15.489-40.276,8.018c-17.02-7.471-26.582-23.175-21.359-35.075
				c0.326-0.744,0.703-1.455,1.126-2.133"/>
			<path class="st5" d="M623.64,571.255c-5.224,11.9-23.256,15.489-40.276,8.018c-17.02-7.471-26.582-23.175-21.359-35.074
				c0.326-0.744,0.703-1.455,1.126-2.133"/>
			<path class="st5" d="M647.456,514.656c-5.392,12.283-24.005,15.989-41.574,8.276c-17.568-7.712-27.439-23.922-22.047-36.205
				c0.337-0.768,0.726-1.502,1.162-2.202"/>
			<path class="st5" d="M654.005,497.53c-5.254,11.969-23.392,15.58-40.512,8.065c-17.12-7.515-26.738-23.311-21.484-35.28
				c0.328-0.748,0.707-1.464,1.133-2.146"/>
			<path class="st5" d="M638.857,533.598c-5.352,12.191-23.825,15.869-41.262,8.214c-17.437-7.654-27.234-23.743-21.882-35.934
				c0.335-0.762,0.72-1.491,1.154-2.185"/>
		</g>
	</g>
	<g>
		<g>
			<path class="st4" d="M609.076,432.11c6.503-10.421,23.761-13.205,40.108-6.029c15.257,6.698,24.665,19.852,23.193,31.203
				c-0.21,1.622-0.643,3.206-1.312,4.73"/>
			<path class="st4" d="M601.171,452.159c6.348-10.172,23.193-12.889,39.149-5.885c14.892,6.538,24.075,19.378,22.639,30.457
				c-0.205,1.583-0.627,3.13-1.28,4.617"/>
			<path class="st4" d="M617.205,412.95c6.552-10.5,23.941-13.305,40.411-6.074c15.372,6.748,24.851,20.002,23.368,31.439
				c-0.212,1.634-0.647,3.231-1.321,4.766"/>
			<path class="st4" d="M625.36,396.568c6.385-10.232,23.329-12.965,39.379-5.919c14.98,6.576,24.216,19.491,22.771,30.636
				c-0.206,1.592-0.631,3.148-1.288,4.644"/>
			<path class="st4" d="M638.189,395.522c4.028-6.057,15.821-6.987,27.426-1.892c10.832,4.755,17.911,13.182,17.399,20.029
				c-0.073,0.978-0.301,1.924-0.696,2.822"/>
			<path class="st4" d="M645.332,390.105c2.176-2.472,10.767-1.376,20.014,2.683c8.631,3.789,14.975,8.904,15.5,12.232
				c0.075,0.475,0.031,0.914-0.141,1.308"/>
		</g>
		<g>
			<path class="st5" d="M662.099,480.391c-5.224,11.9-23.256,15.489-40.276,8.018c-17.02-7.471-26.582-23.175-21.359-35.074
				c0.327-0.744,0.703-1.455,1.126-2.133"/>
			<path class="st5" d="M680.097,442.091c-5.392,12.283-24.005,15.989-41.574,8.276s-27.439-23.922-22.047-36.205
				c0.337-0.768,0.726-1.502,1.162-2.202"/>
			<path class="st5" d="M686.646,424.965c-5.254,11.969-23.392,15.58-40.512,8.065c-17.12-7.515-26.738-23.311-21.484-35.28
				c0.328-0.748,0.707-1.464,1.133-2.146"/>
			<path class="st5" d="M681.947,415.641c-3.793,8.641-16.886,11.247-29.245,5.822c-12.358-5.425-19.302-16.828-15.509-25.468
				c0.237-0.54,0.51-1.056,0.818-1.549"/>
			<path class="st5" d="M680.082,405.059c-2.624,5.977-12.661,7.351-22.417,3.068s-15.539-12.601-12.915-18.578
				c0.164-0.374,0.357-0.729,0.577-1.067"/>
			<path class="st5" d="M671.498,461.033c-5.352,12.191-23.826,15.869-41.262,8.214c-17.437-7.655-27.234-23.743-21.882-35.934
				c0.334-0.762,0.72-1.491,1.154-2.185"/>
		</g>
	</g>
</g>
<g id="Brazos_Vertical">
	<g>
		<path class="st5" d="M384.499,610.668c-10.384,6.817-46.445-29.761-80.544-81.7s-53.324-99.57-42.939-106.388
			c0.649-0.426,1.398-0.683,2.241-0.777"/>
		<path class="st4" d="M262.421,422.353c12.643-1.409,46.335,33.784,78.303,82.476c29.837,45.447,48.285,87.595,45.474,101.989
			c-0.402,2.056-1.237,3.546-2.535,4.398"/>
	</g>
	<g>
		<path class="st5" d="M399.174,597.151c-10.384,6.817-46.445-29.761-80.544-81.7c-34.099-51.939-53.324-99.57-42.939-106.388
			c0.649-0.426,1.398-0.683,2.241-0.777"/>
		<path class="st4" d="M277.096,408.836c12.643-1.409,46.335,33.784,78.303,82.476c29.837,45.447,48.285,87.595,45.474,101.989
			c-0.402,2.056-1.237,3.546-2.535,4.398"/>
	</g>
	<g>
		<path class="st5" d="M417.174,584.851c-10.384,6.817-46.445-29.761-80.544-81.7c-34.099-51.939-53.324-99.57-42.939-106.388
			c0.649-0.426,1.398-0.683,2.241-0.777"/>
		<path class="st4" d="M295.096,396.536c12.643-1.409,46.335,33.784,78.303,82.476c29.837,45.447,48.285,87.595,45.474,101.989
			c-0.402,2.056-1.237,3.546-2.535,4.398"/>
	</g>
	<g>
		<path class="st3" d="M553.535,592.422c-11.348-5.053-0.06-55.162,25.212-111.922s54.959-98.677,66.307-93.624
			c0.709,0.316,1.33,0.808,1.865,1.466"/>
		<path class="st2" d="M646.006,387.936c8.018,9.876-3.384,57.243-27.077,110.456c-22.113,49.665-47.607,87.966-61.237,93.38
			c-1.947,0.773-3.652,0.876-5.071,0.244"/>
	</g>
	<g>
		<path class="st3" d="M572.839,597.465c-11.348-5.053-0.06-55.162,25.212-111.922c25.273-56.76,54.959-98.677,66.307-93.624
			c0.709,0.316,1.33,0.808,1.865,1.466"/>
		<path class="st2" d="M665.31,392.978c8.018,9.876-3.384,57.243-27.077,110.456c-22.113,49.665-47.607,87.966-61.237,93.38
			c-1.947,0.773-3.652,0.876-5.071,0.244"/>
	</g>
	<g>
		<path class="st3" d="M592.917,605.962c-11.348-5.053-0.06-55.162,25.213-111.922c25.272-56.76,54.959-98.677,66.307-93.624
			c0.709,0.316,1.33,0.808,1.865,1.466"/>
		<path class="st2" d="M685.387,401.476c8.018,9.876-3.384,57.243-27.077,110.456c-22.113,49.665-47.607,87.966-61.237,93.38
			c-1.947,0.773-3.652,0.876-5.071,0.244"/>
	</g>
</g>
<g id="Body_Red">
	<path class="st3" d="M548.802,584.188c0,7.047-28.576,12.761-63.825,12.761s-63.825-5.713-63.825-12.761
		c0-0.44,0.112-0.876,0.33-1.305"/>
	<path class="st2" d="M421.482,583.451c3.268-6.435,30.449-11.456,63.496-11.456c30.843,0,56.577,4.374,62.528,10.189
		c0.85,0.831,1.297,1.691,1.297,2.572"/>
	<path class="st3" d="M548.802,570.563c0,7.047-28.576,12.761-63.825,12.761s-63.825-5.713-63.825-12.761
		c0-0.44,0.112-0.876,0.33-1.305"/>
	<path class="st2" d="M421.482,569.825c3.268-6.435,30.449-11.456,63.496-11.456c30.843,0,56.577,4.374,62.528,10.189
		c0.85,0.831,1.297,1.691,1.297,2.572"/>
	<path class="st3" d="M548.802,554.914c0,7.047-28.576,12.761-63.825,12.761s-63.825-5.713-63.825-12.761
		c0-0.44,0.112-0.876,0.33-1.305"/>
	<path class="st2" d="M421.482,554.176c3.268-6.435,30.449-11.456,63.496-11.456c30.843,0,56.577,4.374,62.528,10.189
		c0.85,0.831,1.297,1.691,1.297,2.572"/>
	<path class="st3" d="M548.802,539.646c0,7.047-28.576,12.761-63.825,12.761s-63.825-5.713-63.825-12.761
		c0-0.44,0.112-0.876,0.33-1.305"/>
	<path class="st2" d="M421.482,538.908c3.268-6.435,30.449-11.456,63.496-11.456c30.843,0,56.577,4.374,62.528,10.189
		c0.85,0.831,1.297,1.691,1.297,2.572"/>
	<path class="st3" d="M548.802,526.672c0,7.047-28.576,12.761-63.825,12.761s-63.825-5.713-63.825-12.761
		c0-0.44,0.112-0.876,0.33-1.305"/>
	<path class="st2" d="M421.482,525.935c3.268-6.435,30.449-11.456,63.496-11.456c30.843,0,56.577,4.374,62.528,10.189
		c0.85,0.831,1.297,1.691,1.297,2.572"/>
	<path class="st3" d="M388.135,492.542c-6.066,4.635-29.777-16.205-52.96-46.547s-37.058-58.696-30.992-63.331
		c0.379-0.29,0.827-0.48,1.34-0.574"/>
	<path class="st2" d="M305.035,382.463c7.688-1.418,29.886,18.676,51.62,47.121c20.285,26.549,33.444,51.577,32.353,60.524
		c-0.156,1.278-0.603,2.228-1.361,2.807"/>
	<path class="st3" d="M397.766,480.707c-6.066,4.635-29.777-16.205-52.96-46.547s-37.058-58.696-30.992-63.331
		c0.379-0.29,0.827-0.48,1.34-0.574"/>
	<path class="st2" d="M314.666,370.628c7.688-1.418,29.886,18.676,51.62,47.121c20.285,26.549,33.444,51.577,32.353,60.524
		c-0.156,1.278-0.603,2.228-1.361,2.807"/>
	<path class="st3" d="M408.904,470.864c-6.066,4.635-29.777-16.205-52.96-46.547c-23.183-30.342-37.058-58.696-30.992-63.331
		c0.379-0.29,0.827-0.48,1.34-0.574"/>
	<path class="st2" d="M325.804,360.785c7.688-1.418,29.886,18.676,51.62,47.121c20.285,26.549,33.444,51.577,32.353,60.524
		c-0.156,1.278-0.603,2.228-1.361,2.807"/>
	<path class="st3" d="M420.738,465.232c-6.066,4.635-29.777-16.205-52.96-46.547c-23.183-30.342-37.058-58.696-30.992-63.331
		c0.379-0.29,0.827-0.48,1.34-0.574"/>
	<path class="st2" d="M337.638,355.153c7.688-1.418,29.886,18.676,51.62,47.121c20.285,26.549,33.444,51.577,32.353,60.524
		c-0.156,1.278-0.603,2.228-1.361,2.807"/>
	<path class="st3" d="M435.14,461.755c-6.066,4.635-29.777-16.205-52.96-46.547s-37.058-58.696-30.992-63.331
		c0.379-0.29,0.827-0.48,1.34-0.574"/>
	<path class="st2" d="M352.039,351.676c7.688-1.418,29.886,18.676,51.62,47.121c20.285,26.549,33.444,51.577,32.353,60.524
		c-0.156,1.278-0.603,2.228-1.361,2.807"/>
	<path class="st3" d="M446.394,455.962c-6.066,4.635-29.777-16.205-52.96-46.547s-37.058-58.696-30.992-63.331
		c0.379-0.29,0.827-0.48,1.34-0.574"/>
	<path class="st2" d="M363.294,345.883c7.688-1.418,29.886,18.676,51.62,47.121c20.285,26.549,33.444,51.577,32.353,60.524
		c-0.156,1.278-0.603,2.228-1.361,2.807"/>
	<path class="st3" d="M461.394,451.962c-6.066,4.635-29.777-16.205-52.96-46.547s-37.058-58.696-30.992-63.331
		c0.379-0.29,0.827-0.48,1.34-0.574"/>
	<path class="st2" d="M378.294,341.883c7.688-1.418,29.886,18.676,51.62,47.121c20.285,26.549,33.444,51.577,32.353,60.524
		c-0.156,1.278-0.603,2.228-1.361,2.807"/>
	<path class="st3" d="M563.501,486.079c6.488,4.023,28.061-19.022,48.185-51.474s31.178-62.02,24.69-66.043
		c-0.406-0.251-0.87-0.397-1.389-0.441"/>
	<path class="st2" d="M635.509,368.444c-7.79-0.664-27.93,21.492-46.796,51.915c-17.608,28.395-28.273,54.583-26.317,63.381
		c0.279,1.257,0.816,2.159,1.627,2.662"/>
	<path class="st3" d="M552.766,475.236c6.488,4.023,28.061-19.022,48.185-51.474s31.178-62.02,24.69-66.043
		c-0.405-0.251-0.87-0.397-1.389-0.441"/>
	<path class="st2" d="M624.774,357.602c-7.79-0.664-27.93,21.492-46.796,51.915c-17.608,28.395-28.273,54.583-26.317,63.381
		c0.279,1.257,0.816,2.159,1.627,2.662"/>
	<path class="st3" d="M540.724,466.522c6.488,4.023,28.061-19.022,48.185-51.474c20.124-32.451,31.178-62.02,24.69-66.043
		c-0.406-0.251-0.87-0.397-1.389-0.441"/>
	<path class="st2" d="M612.732,348.888c-7.79-0.664-27.93,21.492-46.796,51.915c-17.608,28.395-28.273,54.583-26.317,63.381
		c0.279,1.257,0.816,2.159,1.627,2.662"/>
	<path class="st3" d="M528.399,462.066c6.488,4.023,28.061-19.022,48.185-51.474c20.124-32.451,31.178-62.02,24.69-66.043
		c-0.406-0.251-0.87-0.397-1.389-0.441"/>
	<path class="st2" d="M600.407,344.432c-7.79-0.664-27.93,21.492-46.796,51.915c-17.608,28.395-28.273,54.583-26.317,63.381
		c0.279,1.257,0.816,2.159,1.627,2.662"/>
	<path class="st3" d="M513.727,460.006c6.488,4.023,28.061-19.022,48.185-51.474c20.124-32.451,31.178-62.02,24.69-66.043
		c-0.406-0.251-0.87-0.397-1.389-0.441"/>
	<path class="st2" d="M585.735,342.371c-7.79-0.664-27.93,21.492-46.796,51.915c-17.608,28.395-28.273,54.583-26.317,63.381
		c0.279,1.257,0.816,2.159,1.627,2.662"/>
	<path class="st3" d="M501.963,455.334c6.488,4.023,28.061-19.022,48.185-51.474s31.178-62.02,24.69-66.043
		c-0.405-0.251-0.87-0.397-1.389-0.441"/>
	<path class="st2" d="M573.971,337.7c-7.79-0.664-27.93,21.492-46.796,51.915c-17.608,28.395-28.273,54.583-26.317,63.381
		c0.279,1.257,0.816,2.159,1.627,2.662"/>
	<path class="st3" d="M487.963,446.334c6.488,4.023,28.061-19.022,48.185-51.474s31.178-62.02,24.69-66.043
		c-0.405-0.251-0.87-0.397-1.389-0.441"/>
	<path class="st2" d="M559.971,328.7c-7.79-0.664-27.93,21.492-46.796,51.915c-17.608,28.395-28.273,54.583-26.317,63.381
		c0.279,1.257,0.816,2.159,1.627,2.662"/>
</g>
<g id="Body_Blue">
	<path class="st5" d="M405.013,358.482c2.268,4.7-19.259,19.788-48.084,33.699c-28.824,13.911-54.03,21.378-56.299,16.677
		c-0.142-0.294-0.191-0.628-0.15-1"/>
	<path class="st4" d="M300.813,408.548c-1.107-9.122,18.169-25.96,45.192-39.002c25.221-12.172,48.833-17.004,57.116-12.275
		c1.183,0.676,2.054,1.546,2.571,2.618"/>
	<path class="st5" d="M419.993,379.651c1.375,2.849-20.878,16.435-49.702,30.346c-28.824,13.911-53.306,22.879-54.68,20.03
		c-0.086-0.178-0.08-0.398,0.015-0.657"/>
	<path class="st4" d="M315.828,429.788c0.382-6.036,20.821-20.467,47.843-33.508c25.221-12.172,47.821-19.101,54.758-17.161
		c0.991,0.277,1.662,0.735,1.976,1.385"/>
	<path class="st5" d="M438.693,406.136c1.375,2.849-20.878,16.435-49.702,30.346c-28.824,13.911-53.306,22.879-54.68,20.03
		c-0.086-0.178-0.08-0.398,0.015-0.657"/>
	<path class="st4" d="M334.528,456.273c0.382-6.036,20.821-20.467,47.843-33.508c25.221-12.172,47.821-19.101,54.758-17.161
		c0.991,0.277,1.662,0.735,1.976,1.385"/>
	<path class="st5" d="M461.295,425.539c1.375,2.849-20.878,16.435-49.702,30.346c-28.824,13.911-53.306,22.879-54.68,20.03
		c-0.086-0.178-0.08-0.398,0.015-0.657"/>
	<path class="st4" d="M357.13,475.676c0.382-6.036,20.821-20.467,47.843-33.508c25.221-12.172,47.821-19.101,54.758-17.161
		c0.991,0.277,1.662,0.735,1.976,1.385"/>
	<path class="st5" d="M584.271,475.29c-1.63,2.711-25.187-8.46-52.617-24.951c-27.43-16.491-48.345-32.057-46.716-34.768
		c0.102-0.169,0.289-0.285,0.558-0.348"/>
	<path class="st4" d="M485.257,415.622c5.259-2.988,28.529,6.204,54.245,21.664c24.001,14.43,42.18,29.539,44.358,36.405
		c0.311,0.981,0.296,1.793-0.076,2.412"/>
	<path class="st5" d="M448.316,597.966c-2.098,0.009-3.884-19.328-3.99-43.191c-0.106-23.863,1.509-43.215,3.607-43.224
		c0.131-0.001,0.261,0.074,0.389,0.221"/>
	<path class="st4" d="M448.014,511.773c3.505,2.197,6.314,20.585,6.413,42.957c0.093,20.88-2.206,38.311-5.347,42.354
		c-0.449,0.578-0.914,0.882-1.393,0.884"/>
	<path class="st5" d="M460.438,597.966c-2.098,0.009-3.884-19.328-3.99-43.191c-0.106-23.863,1.509-43.215,3.607-43.224
		c0.131-0.001,0.261,0.074,0.389,0.221"/>
	<path class="st4" d="M460.135,511.773c3.505,2.197,6.314,20.585,6.413,42.957c0.093,20.88-2.206,38.311-5.347,42.354
		c-0.449,0.578-0.914,0.882-1.393,0.884"/>
	<path class="st5" d="M474.113,597.966c-2.098,0.009-3.884-19.328-3.99-43.191c-0.106-23.863,1.509-43.215,3.607-43.224
		c0.131-0.001,0.261,0.074,0.389,0.221"/>
	<path class="st4" d="M473.811,511.773c3.505,2.197,6.314,20.585,6.413,42.957c0.093,20.88-2.206,38.311-5.347,42.354
		c-0.449,0.578-0.914,0.882-1.393,0.884"/>
	<path class="st5" d="M485.021,597.966c-2.098,0.009-3.884-19.328-3.99-43.191c-0.106-23.863,1.509-43.215,3.607-43.224
		c0.131-0.001,0.261,0.074,0.389,0.221"/>
	<path class="st4" d="M484.718,511.773c3.505,2.197,6.314,20.585,6.413,42.957c0.093,20.88-2.206,38.311-5.347,42.354
		c-0.449,0.578-0.915,0.882-1.393,0.884"/>
	<path class="st5" d="M495.904,597.976c-2.098,0.009-3.878-18.07-3.977-40.38c-0.099-22.311,1.521-40.405,3.619-40.414
		c0.131-0.001,0.261,0.069,0.389,0.207"/>
	<path class="st4" d="M495.626,517.39c3.504,2.053,6.308,19.245,6.401,40.161c0.087,19.522-2.217,35.82-5.359,39.601
		c-0.449,0.54-0.915,0.825-1.393,0.827"/>
	<path class="st5" d="M506.936,597.973c-2.098,0.009-3.878-18.07-3.977-40.38c-0.099-22.311,1.521-40.405,3.619-40.414
		c0.131-0.001,0.261,0.069,0.389,0.207"/>
	<path class="st4" d="M506.659,517.387c3.504,2.053,6.308,19.245,6.401,40.161c0.087,19.522-2.217,35.82-5.359,39.601
		c-0.449,0.54-0.915,0.825-1.393,0.827"/>
	<path class="st5" d="M518.847,597.97c-2.098,0.009-3.878-18.07-3.977-40.38c-0.099-22.311,1.521-40.405,3.619-40.414
		c0.131-0.001,0.261,0.07,0.389,0.207"/>
	<path class="st4" d="M518.57,517.383c3.504,2.053,6.308,19.245,6.401,40.161c0.087,19.522-2.217,35.82-5.359,39.601
		c-0.449,0.54-0.915,0.825-1.393,0.827"/>
	<path class="st5" d="M532.686,597.966c-2.098,0.009-3.878-18.07-3.977-40.38c-0.099-22.311,1.521-40.405,3.619-40.414
		c0.131-0.001,0.261,0.069,0.389,0.207"/>
	<path class="st4" d="M532.409,517.379c3.504,2.053,6.308,19.245,6.401,40.161c0.087,19.522-2.217,35.82-5.359,39.601
		c-0.449,0.54-0.915,0.825-1.393,0.827"/>
	<path class="st5" d="M597.438,456.408c-1.63,2.711-25.187-8.46-52.617-24.951c-27.43-16.491-48.345-32.057-46.716-34.768
		c0.102-0.169,0.289-0.285,0.558-0.348"/>
	<path class="st4" d="M498.423,396.74c5.259-2.988,28.529,6.204,54.245,21.664c24.001,14.43,42.18,29.539,44.358,36.405
		c0.311,0.981,0.296,1.793-0.076,2.412"/>
	<path class="st5" d="M608.037,443.201c-1.63,2.711-25.187-8.46-52.617-24.951c-27.43-16.491-48.345-32.057-46.716-34.768
		c0.102-0.169,0.289-0.285,0.558-0.348"/>
	<path class="st4" d="M509.023,383.533c5.259-2.988,28.529,6.204,54.245,21.664c24.001,14.43,42.18,29.539,44.358,36.405
		c0.311,0.981,0.296,1.793-0.076,2.412"/>
	<path class="st5" d="M618.51,429.608c-1.525,2.537-23.569-7.916-49.236-23.347c-25.667-15.431-45.238-29.997-43.713-32.533
		c0.095-0.159,0.271-0.266,0.522-0.325"/>
	<path class="st4" d="M525.86,373.775c4.921-2.796,26.695,5.805,50.758,20.271c22.459,13.502,39.469,27.64,41.507,34.065
		c0.291,0.918,0.277,1.678-0.071,2.257"/>
	<path class="st5" d="M628.797,413.631c-1.63,2.711-22.976-7.13-47.677-21.981s-43.405-29.087-41.776-31.798
		c0.102-0.169,0.281-0.29,0.533-0.363"/>
	<path class="st4" d="M539.637,359.888c5.006-3.14,26.172,4.787,49.33,18.709c21.614,12.994,37.801,26.906,39.518,33.495
		c0.245,0.941,0.195,1.733-0.177,2.351"/>
	<path class="st5" d="M637.9,396.717c-1.63,2.711-21.119-6.015-43.531-19.489c-22.412-13.474-39.259-26.594-37.63-29.305
		c0.102-0.169,0.273-0.294,0.511-0.376"/>
	<path class="st4" d="M557.011,347.946c4.794-3.267,24.194,3.598,45.205,16.229c19.61,11.79,34.126,24.697,35.456,31.053
		c0.19,0.908,0.111,1.682-0.261,2.301"/>
	<path class="st5" d="M646.587,381.107c-1.63,2.711-21.119-6.015-43.531-19.489c-22.412-13.474-39.259-26.594-37.63-29.305
		c0.102-0.169,0.273-0.294,0.511-0.376"/>
	<path class="st4" d="M565.698,332.336c4.794-3.267,24.194,3.598,45.205,16.229c19.61,11.79,34.126,24.697,35.456,31.053
		c0.19,0.908,0.111,1.682-0.261,2.301"/>
	<path class="st5" d="M396.197,342.203c1.541,3.194-20.576,17.06-49.4,30.971c-28.824,13.911-53.441,22.599-54.982,19.405
		c-0.096-0.2-0.1-0.441-0.016-0.721"/>
	<path class="st4" d="M291.923,392.115c1.265-4.206,22.393-17.208,49.416-30.25c25.221-12.172,47.221-20.345,53.359-20.059
		c0.877,0.041,1.43,0.255,1.623,0.654"/>
</g>
<g id="Antebrazo_Fondo" class="st0">
	<path class="st6" d="M608.921,595.64l-22.941-59.402c0,0-0.338-0.232-1.146-0.473l1.166-0.538L530.02,445l-50.965,64l52.037,46.926
		c-0.909,1.227-1.072,1.923-1.072,1.923l22.941,59.402c0,0,2.075,5.935,30.244-4.944C611.373,601.429,608.921,595.64,608.921,595.64
		z"/>
	<path class="st6" d="M476,525c0,0-19-36.5-90-34c0,0-4.625,26.608-1.687,42.91l-20.275,69.563c0,0-3.079,9.843,25.911,18.292
		c28.99,8.449,31.681-1.506,31.681-1.506l20.419-70.059c9.199-3.06,18.908-8.837,28.618-18.7L476,525z"/>
</g>
<g id="Antebrazo_horizontal">
	<g>
		<g>
			<path class="st2" d="M365.105,603.55c2.294-2.532,15.333-1.439,30.425,2.677c14.086,3.842,25.294,9.044,27.287,12.441
				c0.285,0.485,0.382,0.934,0.272,1.336"/>
			<path class="st2" d="M366.504,595.822c2.294-2.532,15.333-1.439,30.425,2.677c14.086,3.842,25.294,9.044,27.287,12.441
				c0.285,0.485,0.382,0.934,0.272,1.336"/>
			<path class="st2" d="M368.546,587.188c2.294-2.532,15.333-1.439,30.425,2.677c14.086,3.842,25.294,9.044,27.287,12.441
				c0.285,0.485,0.382,0.934,0.272,1.336"/>
			<path class="st2" d="M370.29,579.739c2.294-2.531,15.333-1.439,30.425,2.677c14.086,3.842,25.294,9.044,27.287,12.441
				c0.285,0.485,0.382,0.934,0.272,1.336"/>
			<path class="st2" d="M372.271,571.105c2.294-2.532,15.333-1.439,30.425,2.677c14.086,3.842,25.294,9.044,27.287,12.441
				c0.285,0.485,0.382,0.934,0.272,1.336"/>
			<path class="st2" d="M375.01,563.838c2.294-2.531,15.333-1.439,30.425,2.677c14.086,3.842,25.294,9.044,27.287,12.441
				c0.285,0.485,0.382,0.934,0.272,1.336"/>
			<path class="st2" d="M377.035,554.879c2.294-2.532,15.333-1.439,30.425,2.677c14.086,3.842,25.294,9.044,27.287,12.441
				c0.285,0.485,0.382,0.934,0.272,1.336"/>
			<path class="st2" d="M379.684,547.647c2.294-2.532,15.333-1.439,30.425,2.677c14.086,3.842,25.294,9.044,27.287,12.441
				c0.285,0.485,0.382,0.934,0.272,1.336"/>
			<path class="st2" d="M382.133,539.013c2.294-2.532,15.333-1.439,30.425,2.677c14.086,3.842,25.294,9.044,27.287,12.441
				c0.285,0.485,0.382,0.934,0.272,1.336"/>
			<path class="st2" d="M384.975,530.079c2.407-2.656,16.084-1.51,31.916,2.808c14.776,4.03,26.533,9.488,28.624,13.051
				c0.299,0.509,0.4,0.979,0.285,1.401"/>
			<path class="st2" d="M384.244,518.71c2.945-3.25,19.684-1.848,39.06,3.436c18.084,4.932,32.472,11.611,35.032,15.972
				c0.366,0.623,0.49,1.199,0.349,1.715"/>
			<path class="st2" d="M384.562,507.643c3.343-3.689,22.346-2.098,44.341,3.901c20.529,5.599,36.863,13.181,39.768,18.132
				c0.415,0.707,0.556,1.361,0.396,1.947"/>
			<path class="st2" d="M385.341,497.195c3.459-3.817,23.116-2.17,45.869,4.035c21.236,5.792,38.133,13.635,41.139,18.757
				c0.429,0.732,0.575,1.408,0.41,2.014"/>
		</g>
		<g>
			<path class="st3" d="M423.16,619.745c-0.878,3.219-14.64,2.269-30.738-2.122c-16.098-4.39-28.437-10.559-27.559-13.777
				c0.055-0.201,0.16-0.386,0.313-0.555"/>
			<path class="st3" d="M424.559,612.017c-0.878,3.219-14.64,2.268-30.738-2.122c-16.098-4.39-28.437-10.559-27.559-13.777
				c0.055-0.201,0.16-0.386,0.313-0.555"/>
			<path class="st3" d="M426.601,603.383c-0.878,3.219-14.64,2.268-30.738-2.122c-16.098-4.39-28.437-10.559-27.559-13.777
				c0.055-0.201,0.16-0.386,0.313-0.555"/>
			<path class="st3" d="M428.345,595.934c-0.878,3.219-14.64,2.269-30.738-2.122c-16.098-4.39-28.437-10.559-27.559-13.777
				c0.055-0.201,0.16-0.386,0.313-0.555"/>
			<path class="st3" d="M430.325,587.3c-0.878,3.219-14.64,2.269-30.738-2.122c-16.098-4.39-28.437-10.559-27.559-13.777
				c0.055-0.201,0.16-0.386,0.313-0.555"/>
			<path class="st3" d="M433.065,580.033c-0.878,3.219-14.64,2.269-30.738-2.122c-16.098-4.39-28.437-10.559-27.559-13.777
				c0.055-0.201,0.16-0.386,0.313-0.555"/>
			<path class="st3" d="M435.09,571.074c-0.878,3.219-14.64,2.268-30.738-2.122c-16.098-4.39-28.437-10.559-27.559-13.777
				c0.055-0.201,0.16-0.386,0.313-0.555"/>
			<path class="st3" d="M437.739,563.842c-0.878,3.219-14.64,2.268-30.738-2.122c-16.098-4.39-28.437-10.559-27.559-13.777
				c0.055-0.201,0.16-0.386,0.313-0.555"/>
			<path class="st3" d="M440.188,555.208c-0.878,3.219-14.64,2.269-30.738-2.122s-28.437-10.559-27.559-13.777
				c0.055-0.201,0.16-0.386,0.313-0.555"/>
			<path class="st3" d="M445.874,547.067c-0.921,3.376-15.357,2.38-32.244-2.226c-16.887-4.606-29.83-11.076-28.91-14.452
				c0.058-0.211,0.168-0.405,0.328-0.582"/>
			<path class="st3" d="M458.776,539.501c-1.127,4.132-18.795,2.912-39.462-2.724c-20.667-5.637-36.508-13.555-35.381-17.688
				c0.07-0.258,0.205-0.496,0.402-0.712"/>
			<path class="st3" d="M469.171,531.246c-1.279,4.691-21.336,3.306-44.797-3.092c-23.462-6.399-41.444-15.388-40.165-20.079
				c0.08-0.293,0.233-0.563,0.456-0.809"/>
			<path class="st3" d="M472.865,521.61c-1.323,4.852-22.071,3.42-46.341-3.199s-42.872-15.918-41.549-20.771
				c0.083-0.303,0.241-0.582,0.472-0.836"/>
			<path class="st3" d="M476.865,511.61c-1.323,4.852-22.071,3.42-46.341-3.199s-42.872-15.918-41.549-20.771
				c0.083-0.303,0.241-0.582,0.472-0.836"/>
		</g>
	</g>
	<g>
		<g>
			<path class="st4" d="M480.82,511.405c-1.307-4.126,8.554-18.881,23.153-34.359c13.626-14.446,26.864-24.735,31.98-25.178
				c0.731-0.063,1.296,0.074,1.672,0.43"/>
			<path class="st4" d="M480.987,509.503c-2.188-3.7,4.04-19.789,14.687-37.502c9.937-16.532,22.431-30.001,27.277-31.431
				c0.692-0.204,1.269-0.183,1.713,0.084"/>
			<path class="st4" d="M551.173,613.271c0.25-3.407,11.198-10.572,25.626-16.618c13.466-5.643,25.501-8.441,29.163-6.991
				c0.523,0.207,0.875,0.501,1.037,0.885"/>
			<path class="st4" d="M547.577,604.599c0.25-3.407,11.198-10.572,25.626-16.618c13.466-5.643,25.501-8.441,29.163-6.991
				c0.523,0.207,0.875,0.501,1.037,0.886"/>
			<path class="st4" d="M544.067,595.748c0.25-3.407,11.198-10.572,25.626-16.618c13.466-5.643,25.501-8.441,29.163-6.991
				c0.523,0.207,0.875,0.501,1.037,0.886"/>
			<path class="st4" d="M540.567,586.473c0.25-3.407,11.198-10.572,25.626-16.618c13.466-5.643,25.501-8.441,29.163-6.991
				c0.523,0.207,0.875,0.501,1.037,0.886"/>
			<path class="st4" d="M537.854,577.901c0.25-3.407,11.198-10.572,25.626-16.618c13.466-5.643,25.501-8.441,29.163-6.991
				c0.523,0.207,0.875,0.501,1.037,0.885"/>
			<path class="st4" d="M533.853,568.793c0.25-3.407,11.198-10.572,25.626-16.618c13.466-5.643,25.501-8.441,29.163-6.991
				c0.523,0.207,0.875,0.501,1.037,0.885"/>
			<path class="st4" d="M530.47,560.24c0.25-3.407,11.198-10.572,25.626-16.618c13.466-5.643,25.501-8.441,29.163-6.991
				c0.523,0.207,0.875,0.501,1.037,0.886"/>
			<path class="st4" d="M530.678,554.439c-0.265-3.292,9.137-11.756,22.029-19.664c12.032-7.381,23.118-11.833,26.831-10.989
				c0.53,0.121,0.91,0.349,1.121,0.693"/>
			<path class="st4" d="M523.172,546.823c-0.265-3.292,9.137-11.756,22.029-19.664c12.032-7.381,23.118-11.833,26.831-10.989
				c0.531,0.121,0.911,0.349,1.121,0.693"/>
			<path class="st4" d="M516.611,541.317c-0.573-3.524,8.816-13.463,22.013-23.11c12.317-9.004,23.871-14.769,27.945-14.184
				c0.582,0.084,1.011,0.297,1.269,0.648"/>
			<path class="st4" d="M510.776,536.271c-0.852-3.541,7.939-14.368,20.627-25.189c11.842-10.099,23.154-16.846,27.343-16.562
				c0.598,0.041,1.051,0.225,1.34,0.563"/>
			<path class="st4" d="M502.912,530.711c-0.897-3.729,8.361-15.132,21.723-26.527c12.471-10.636,24.384-17.741,28.796-17.442
				c0.63,0.043,1.107,0.237,1.411,0.593"/>
			<path class="st4" d="M497.16,522.868c-0.907-3.769,8.451-15.293,21.955-26.811c12.604-10.749,24.645-17.931,29.103-17.628
				c0.637,0.043,1.119,0.239,1.426,0.599"/>
			<path class="st4" d="M488.1,514.933c-0.957-3.976,8.915-16.134,23.161-28.284c13.297-11.34,25.999-18.916,30.703-18.597
				c0.672,0.046,1.181,0.252,1.505,0.632"/>
		</g>
		<g>
			<path class="st5" d="M606.895,590.3c1.289,3.077-10.141,10.799-25.531,17.248c-15.39,6.449-28.911,9.183-30.2,6.106
				c-0.081-0.192-0.112-0.403-0.095-0.63"/>
			<path class="st5" d="M603.299,581.628c1.289,3.077-10.141,10.799-25.531,17.248c-15.39,6.449-28.911,9.183-30.2,6.106
				c-0.081-0.192-0.112-0.403-0.095-0.63"/>
			<path class="st5" d="M599.789,572.776c1.289,3.077-10.141,10.799-25.531,17.248c-15.39,6.449-28.911,9.183-30.2,6.106
				c-0.081-0.192-0.111-0.403-0.095-0.63"/>
			<path class="st5" d="M596.289,563.501c1.289,3.077-10.141,10.799-25.531,17.248c-15.39,6.449-28.911,9.183-30.2,6.106
				c-0.081-0.192-0.111-0.403-0.095-0.63"/>
			<path class="st5" d="M593.576,554.929c1.289,3.077-10.141,10.799-25.531,17.248c-15.39,6.449-28.911,9.183-30.2,6.106
				c-0.081-0.192-0.112-0.403-0.095-0.63"/>
			<path class="st5" d="M589.575,545.822c1.289,3.077-10.141,10.799-25.531,17.248c-15.39,6.449-28.911,9.183-30.2,6.106
				c-0.081-0.192-0.112-0.403-0.095-0.63"/>
			<path class="st5" d="M586.192,537.268c1.289,3.077-10.141,10.799-25.531,17.248c-15.39,6.449-28.911,9.183-30.2,6.106
				c-0.081-0.192-0.112-0.403-0.095-0.63"/>
			<path class="st5" d="M580.524,524.258c1.687,2.749-8.094,11.816-21.845,20.252c-13.751,8.435-26.266,13.045-27.953,10.296
				c-0.105-0.172-0.166-0.368-0.184-0.588"/>
			<path class="st5" d="M573.018,516.642c1.687,2.749-8.094,11.816-21.845,20.252s-26.266,13.045-27.953,10.296
				c-0.105-0.172-0.166-0.368-0.184-0.588"/>
			<path class="st5" d="M567.672,504.445c2.057,2.814-7.687,13.438-21.764,23.727c-14.077,10.29-27.156,16.35-29.214,13.536
				c-0.129-0.176-0.211-0.382-0.249-0.617"/>
			<path class="st5" d="M559.9,494.864c2.308,2.706-6.793,14.256-20.326,25.798c-13.534,11.542-26.375,18.705-28.683,15.999
				c-0.144-0.169-0.244-0.373-0.301-0.609"/>
			<path class="st5" d="M554.646,487.105c2.43,2.85-7.154,15.013-21.406,27.169s-27.777,19.699-30.207,16.85
				c-0.152-0.178-0.257-0.393-0.317-0.641"/>
			<path class="st5" d="M549.447,478.796c2.456,2.88-7.23,15.174-21.635,27.459s-28.073,19.909-30.53,17.03
				c-0.154-0.18-0.26-0.397-0.32-0.648"/>
			<path class="st5" d="M543.26,468.439c2.591,3.038-7.627,16.007-22.824,28.968c-15.196,12.96-29.616,21.003-32.207,17.965
				c-0.162-0.19-0.274-0.419-0.338-0.684"/>
			<path class="st5" d="M536.673,452.012c3.09,2.758-6.357,18.381-21.099,34.894c-14.742,16.513-29.198,27.663-32.287,24.905
				c-0.193-0.172-0.337-0.395-0.434-0.665"/>
			<path class="st5" d="M523.723,441.058c3.514,2.191-3.131,19.195-14.843,37.979c-11.712,18.784-24.056,32.235-27.57,30.044
				c-0.22-0.137-0.4-0.332-0.541-0.581"/>
		</g>
	</g>
</g>
<g id="Antebrazo_Vertical">
	<g>
		<path class="st5" d="M368.972,622.174c-7.627-2.46-3.837-35.38,8.465-73.53c12.303-38.15,28.459-67.082,36.086-64.622
			c0.477,0.154,0.909,0.426,1.297,0.812"/>
		<path class="st4" d="M414.206,484.636c5.823,5.783,1.771,36.952-9.762,72.718c-10.765,33.381-24.48,59.705-32.85,64.117
			c-1.196,0.63-2.282,0.813-3.236,0.506"/>
	</g>
	<g>
		<path class="st5" d="M382.348,629.389c-7.627-2.46-3.837-35.38,8.465-73.53s28.459-67.082,36.086-64.622
			c0.477,0.154,0.909,0.426,1.297,0.812"/>
		<path class="st4" d="M427.583,491.851c5.823,5.783,1.771,36.952-9.762,72.718c-10.765,33.381-24.48,59.705-32.85,64.117
			c-1.196,0.63-2.282,0.813-3.236,0.506"/>
	</g>
	<g>
		<path class="st5" d="M397.234,636.387c-7.627-2.46-3.837-35.38,8.465-73.53c12.303-38.15,28.459-67.082,36.086-64.622
			c0.477,0.154,0.909,0.426,1.297,0.812"/>
		<path class="st4" d="M442.469,498.849c5.823,5.783,1.771,36.952-9.762,72.718c-10.765,33.381-24.48,59.705-32.85,64.117
			c-1.196,0.63-2.282,0.813-3.236,0.506"/>
	</g>
	<g>
		<path class="st5" d="M409.707,637.548c-5.31-1.712,0.359-34.027,12.661-72.176c12.303-38.15,26.58-67.688,31.89-65.975
			c0.332,0.107,0.621,0.334,0.868,0.674"/>
		<path class="st4" d="M454.699,499.932c3.707,5.101-1.996,35.737-13.529,71.503c-10.765,33.381-23.042,60.169-29.5,65.197
			c-0.923,0.718-1.726,0.993-2.39,0.779"/>
	</g>
	<g>
		<path class="st3" d="M521.731,452.641c11.341-5.069,36.652,26.882,56.534,71.365s26.807,84.652,15.466,89.721
			c-0.709,0.317-1.472,0.489-2.285,0.523"/>
		<path class="st2" d="M592.358,613.841c-12.198,0.504-35.609-30.185-54.249-71.887c-17.397-38.922-24.873-74.542-18.873-86.235
			c0.857-1.67,1.989-2.852,3.407-3.486"/>
	</g>
	<g>
		<path class="st3" d="M509.906,460.087c9.154-4.091,32.692,28.652,52.574,73.135c19.882,44.483,28.579,83.86,19.426,87.951
			c-0.572,0.256-1.2,0.368-1.88,0.342"/>
		<path class="st2" d="M580.762,621.185c-10.201-0.389-32.054-31.774-50.694-73.476c-17.397-38.922-26.23-73.936-22.035-84.822
			c0.599-1.555,1.465-2.618,2.609-3.129"/>
	</g>
	<g>
		<path class="st3" d="M492.784,470.998c6.32-2.825,26.645,28.894,45.396,70.846s28.828,78.251,22.508,81.076
			c-0.395,0.177-0.845,0.218-1.345,0.131"/>
		<path class="st2" d="M559.852,622.823c-7.509-1.311-26.471-31.647-44.051-70.977c-16.407-36.708-26.174-69.088-24.125-78.502
			c0.293-1.345,0.827-2.221,1.617-2.574"/>
	</g>
</g>
<g id="Cabeza">
	<g>
		<path class="st2" d="M340.001,253.962c6.718-13.225,62.58-23.545,130.499-23.545c63.391,0,116.28,8.99,128.512,20.941
			c1.747,1.707,2.665,3.475,2.665,5.285"/>
		<path class="st2" d="M343.121,277.391c6.557-12.908,61.084-22.982,127.379-22.982c61.875,0,113.5,8.775,125.439,20.44
			c1.706,1.666,2.601,3.392,2.601,5.159"/>
		<path class="st2" d="M352.037,301.377c6.098-12.005,56.809-21.373,118.463-21.373c57.544,0,105.555,8.161,116.659,19.009
			c1.586,1.55,2.419,3.154,2.419,4.798"/>
		<path class="st2" d="M365.926,326.522c5.383-10.597,50.148-18.867,104.574-18.867c50.798,0,93.18,7.204,102.981,16.781
			c1.4,1.368,2.136,2.785,2.136,4.235"/>
		<path class="st2" d="M426.744,377.144c2.252-4.434,20.983-7.894,43.756-7.894c21.255,0,38.988,3.014,43.09,7.021
			c0.586,0.572,0.894,1.165,0.894,1.772"/>
		<path class="st2" d="M391.653,354.087c4.059-7.99,37.811-14.226,78.847-14.226c38.301,0,70.256,5.432,77.646,12.652
			c1.056,1.032,1.61,2.1,1.61,3.193"/>
		<path class="st2" d="M339.016,231.321c6.768-13.325,63.053-23.722,131.484-23.722c63.869,0,117.157,9.058,129.482,21.099
			c1.761,1.72,2.685,3.501,2.685,5.325"/>
		<path class="st2" d="M342.374,211.436c6.595-12.984,61.442-23.116,128.126-23.116c62.238,0,114.165,8.826,126.174,20.56
			c1.716,1.676,2.617,3.412,2.617,5.189"/>
		<path class="st2" d="M346.631,190.355c6.376-12.553,59.401-22.348,123.869-22.348c60.17,0,110.372,8.533,121.982,19.877
			c1.659,1.621,2.53,3.298,2.53,5.017"/>
		<path class="st2" d="M354.472,169.944c5.973-11.758,55.641-20.934,116.028-20.934c56.361,0,103.385,7.993,114.26,18.618
			c1.554,1.518,2.37,3.09,2.37,4.699"/>
		<path class="st2" d="M368.043,147.882c5.274-10.383,49.133-18.485,102.457-18.485c49.769,0,91.293,7.058,100.896,16.441
			c1.372,1.34,2.092,2.728,2.092,4.15"/>
		<path class="st2" d="M380.976,130.551c4.608-9.072,42.931-16.152,89.524-16.152c43.487,0,79.769,6.167,88.16,14.366
			c1.199,1.171,1.828,2.384,1.828,3.626"/>
		<path class="st2" d="M397.57,116.15c3.754-7.391,34.973-13.158,72.93-13.158c35.426,0,64.984,5.024,71.819,11.703
			c0.977,0.954,1.489,1.942,1.489,2.954"/>
		<path class="st2" d="M420.91,104.194c2.553-5.025,23.78-8.947,49.59-8.947c24.089,0,44.186,3.416,48.834,7.957
			c0.664,0.649,1.013,1.32,1.013,2.008"/>
		<path class="st2" d="M442.268,95.546c1.453-2.861,13.538-5.094,28.232-5.094c13.714,0,25.155,1.945,27.802,4.53
			c0.378,0.369,0.577,0.752,0.577,1.143"/>
	</g>
	<g>
		<path class="st7" d="M598.54,278.87c0,14.138-57.326,25.599-128.04,25.599s-128.04-11.461-128.04-25.599
			c0-0.884,0.224-1.757,0.661-2.617"/>
		<path class="st7" d="M589.578,302.753c0,13.148-53.313,23.807-119.078,23.807s-119.078-10.659-119.078-23.807
			c0-0.822,0.208-1.634,0.615-2.434"/>
		<path class="st7" d="M575.617,327.736c0,11.607-47.062,21.016-105.117,21.016s-105.117-9.409-105.117-21.016
			c0-0.725,0.184-1.442,0.543-2.149"/>
		<path class="st7" d="M549.756,355.002c0,8.751-35.484,15.846-79.256,15.846s-79.256-7.094-79.256-15.846
			c0-0.547,0.139-1.087,0.409-1.62"/>
		<path class="st7" d="M514.483,377.653c0,4.857-19.692,8.794-43.983,8.794c-24.291,0-43.983-3.937-43.983-8.794
			c0-0.304,0.077-0.603,0.227-0.899"/>
		<path class="st7" d="M602.667,232.848c0,14.594-59.173,26.424-132.167,26.424s-132.167-11.83-132.167-26.424
			c0-0.912,0.231-1.813,0.682-2.702"/>
		<path class="st7" d="M599.291,212.924c0,14.221-57.661,25.749-128.791,25.749s-128.791-11.528-128.791-25.749
			c0-0.889,0.225-1.767,0.665-2.633"/>
		<path class="st7" d="M595.012,191.793c0,13.748-55.746,24.894-124.512,24.894s-124.512-11.145-124.512-24.894
			c0-0.859,0.218-1.708,0.643-2.545"/>
		<path class="st7" d="M587.13,171.292c0,12.878-52.217,23.318-116.63,23.318s-116.63-10.44-116.63-23.318
			c0-0.805,0.204-1.6,0.602-2.384"/>
		<path class="st7" d="M573.489,149.071c0,11.372-46.11,20.59-102.989,20.59s-102.989-9.219-102.989-20.59
			c0-0.711,0.18-1.413,0.532-2.105"/>
		<path class="st7" d="M560.489,131.591c0,9.936-40.289,17.991-89.989,17.991s-89.989-8.055-89.989-17.991
			c0-0.621,0.157-1.235,0.465-1.84"/>
		<path class="st7" d="M543.809,114.997c0,8.095-32.821,14.657-73.309,14.657s-73.309-6.562-73.309-14.657
			c0-0.506,0.128-1.006,0.378-1.499"/>
		<path class="st7" d="M520.347,103.77c0,5.504-22.317,9.966-49.847,9.966c-27.53,0-49.847-4.462-49.847-9.966
			c0-0.344,0.087-0.684,0.257-1.019"/>
		<path class="st7" d="M498.878,95.874c0,3.133-12.705,5.674-28.378,5.674c-15.673,0-28.378-2.54-28.378-5.674
			c0-0.196,0.05-0.389,0.147-0.58"/>
		<path class="st7" d="M601.677,255.477c0,14.484-58.73,26.226-131.177,26.226s-131.177-11.742-131.177-26.226
			c0-0.905,0.229-1.8,0.677-2.681"/>
	</g>
	<g>
		<g>
			<path class="st4" d="M482.495,386.705c-12.156-7.6-21.642-70.803-21.642-147.645c0-71.72,8.264-131.558,19.249-145.396
				c1.569-1.977,3.194-3.015,4.858-3.015"/>
			<path class="st4" d="M504.031,383.175c-11.866-7.418-21.125-69.11-21.125-144.115c0-70.005,8.066-128.412,18.789-141.92
				c1.532-1.93,3.118-2.943,4.742-2.943"/>
			<path class="st4" d="M526.079,373.088c-11.035-6.899-19.646-64.273-19.646-134.028c0-65.105,7.501-119.424,17.473-131.987
				c1.425-1.795,2.9-2.737,4.41-2.737"/>
			<path class="st4" d="M549.192,357.374c-9.741-6.09-17.343-56.737-17.343-118.314c0-57.472,6.622-105.422,15.425-116.512
				c1.258-1.584,2.56-2.416,3.893-2.416"/>
			<path class="st4" d="M595.725,288.565c-4.076-2.548-7.257-23.74-7.257-49.505c0-24.047,2.771-44.111,6.454-48.751
				c0.526-0.663,1.071-1.011,1.629-1.011"/>
			<path class="st4" d="M574.53,328.266c-7.345-4.592-13.076-42.779-13.076-89.207c0-43.333,4.993-79.487,11.63-87.848
				c0.948-1.194,1.93-1.822,2.935-1.822"/>
			<path class="st4" d="M461.683,387.819c-12.248-7.658-21.806-71.337-21.806-148.76c0-72.261,8.326-132.551,19.394-146.494
				c1.581-1.992,3.218-3.038,4.895-3.038"/>
			<path class="st4" d="M443.405,384.019c-11.935-7.462-21.249-69.515-21.249-144.96c0-70.415,8.113-129.165,18.899-142.752
				c1.541-1.941,3.136-2.96,4.77-2.96"/>
			<path class="st4" d="M424.027,379.203c-11.539-7.214-20.543-67.205-20.543-140.144c0-68.076,7.844-124.873,18.271-138.009
				c1.49-1.877,3.032-2.862,4.612-2.862"/>
			<path class="st4" d="M405.265,370.332c-10.808-6.757-19.242-62.951-19.242-131.272c0-63.766,7.347-116.969,17.114-129.273
				c1.395-1.758,2.84-2.681,4.32-2.681"/>
			<path class="st4" d="M384.985,354.978c-9.544-5.967-16.992-55.588-16.992-115.918c0-56.308,6.488-103.288,15.112-114.153
				c1.232-1.552,2.508-2.367,3.814-2.367"/>
			<path class="st4" d="M369.055,340.346c-8.339-5.214-14.847-48.571-14.847-101.286c0-49.201,5.669-90.25,13.205-99.744
				c1.077-1.356,2.191-2.068,3.333-2.068"/>
			<path class="st4" d="M355.817,321.572c-6.794-4.247-12.095-39.569-12.095-82.513c0-40.081,4.618-73.522,10.757-81.256
				c0.877-1.105,1.785-1.685,2.715-1.685"/>
			<path class="st4" d="M344.827,295.165c-4.619-2.888-8.224-26.905-8.224-56.105c0-27.253,3.14-49.992,7.315-55.25
				c0.596-0.751,1.214-1.146,1.846-1.146"/>
			<path class="st4" d="M336.878,271.001c-2.63-1.644-4.682-15.317-4.682-31.941c0-15.516,1.788-28.461,4.164-31.454
				c0.34-0.428,0.691-0.652,1.051-0.652"/>
		</g>
		<g>
			<path class="st5" d="M505.39,94.197c12.996,0,23.531,64.857,23.531,144.863s-10.535,144.863-23.531,144.863
				c-0.812,0-1.615-0.253-2.406-0.748"/>
			<path class="st5" d="M527.344,104.336c12.086,0,21.884,60.318,21.884,134.724s-9.798,134.724-21.884,134.724
				c-0.755,0-1.502-0.236-2.237-0.696"/>
			<path class="st5" d="M550.308,120.132c10.669,0,19.318,53.246,19.318,118.928s-8.649,118.928-19.318,118.928
				c-0.667,0-1.326-0.208-1.975-0.614"/>
			<path class="st5" d="M575.372,149.39c8.044,0,14.565,40.146,14.565,89.67s-6.521,89.67-14.565,89.67
				c-0.503,0-1-0.157-1.489-0.463"/>
			<path class="st5" d="M596.192,189.298c4.464,0,8.083,22.279,8.083,49.762c0,27.483-3.619,49.762-8.083,49.762
				c-0.279,0-0.555-0.087-0.826-0.257"/>
			<path class="st5" d="M463.087,89.528c13.415,0,24.289,66.948,24.289,149.532s-10.875,149.532-24.289,149.532
				c-0.838,0-1.667-0.262-2.483-0.772"/>
			<path class="st5" d="M444.773,93.348c13.072,0,23.669,65.238,23.669,145.712s-10.597,145.712-23.669,145.712
				c-0.817,0-1.624-0.255-2.42-0.752"/>
			<path class="st5" d="M425.349,98.189c12.638,0,22.882,63.07,22.882,140.871S437.986,379.93,425.349,379.93
				c-0.79,0-1.57-0.246-2.34-0.727"/>
			<path class="st5" d="M406.504,107.106c11.838,0,21.434,59.078,21.434,131.954s-9.596,131.954-21.434,131.954
				c-0.74,0-1.471-0.231-2.191-0.681"/>
			<path class="st5" d="M386.079,122.54c10.453,0,18.927,52.168,18.927,116.52s-8.474,116.52-18.927,116.52
				c-0.653,0-1.299-0.204-1.935-0.602"/>
			<path class="st5" d="M370.01,137.248c9.134,0,16.538,45.583,16.538,101.812s-7.404,101.812-16.538,101.812
				c-0.571,0-1.135-0.178-1.691-0.526"/>
			<path class="st5" d="M354.757,156.119c7.441,0,13.472,37.134,13.472,82.941S362.198,322,354.757,322
				c-0.465,0-0.925-0.145-1.377-0.428"/>
			<path class="st5" d="M344.438,182.663c5.059,0,9.161,25.249,9.161,56.396s-4.101,56.396-9.161,56.396
				c-0.316,0-0.629-0.099-0.937-0.291"/>
			<path class="st5" d="M337.179,206.953c2.88,0,5.215,14.375,5.215,32.107s-2.335,32.107-5.215,32.107
				c-0.18,0-0.358-0.056-0.533-0.166"/>
			<path class="st5" d="M483.888,90.648c13.314,0,24.107,66.446,24.107,148.412s-10.793,148.412-24.107,148.412
				c-0.832,0-1.654-0.26-2.465-0.766"/>
		</g>
	</g>
</g>
<g id="Dedos">
	<path class="st4" d="M454.644,410.043c-1.127-0.894-0.881-4.239,0.629-7.791c1.409-3.315,3.453-5.713,4.878-5.862
		c0.204-0.021,0.395,0.003,0.569,0.078"/>
	<path class="st5" d="M460.461,396.312c1.398,0.594,1.225,4.148-0.385,7.937c-1.611,3.789-4.05,6.379-5.448,5.784
		c-0.087-0.037-0.169-0.086-0.244-0.145"/>
	<path class="st4" d="M451.539,410.135c-1.362-0.543-2.252-4.559-2.02-9.378c0.217-4.498,1.34-8.205,2.633-9.013
		c0.185-0.115,0.373-0.172,0.563-0.162"/>
	<path class="st5" d="M452.419,391.515c1.517,0.073,2.546,4.3,2.298,9.44s-1.679,9.248-3.196,9.175
		c-0.095-0.005-0.188-0.025-0.279-0.062"/>
	<path class="st4" d="M444.687,410.782c-1.421-0.362-2.824-4.229-3.219-9.037c-0.368-4.488,0.264-8.309,1.442-9.278
		c0.168-0.138,0.348-0.218,0.537-0.234"/>
	<path class="st5" d="M443.145,392.206c1.514-0.124,3.082,3.933,3.503,9.062c0.421,5.129-0.465,9.388-1.979,9.512
		c-0.095,0.008-0.189-0.001-0.284-0.025"/>
	<path class="st4" d="M437.252,412.502c-1.421-0.362-2.824-4.229-3.219-9.037c-0.368-4.488,0.264-8.309,1.442-9.278
		c0.168-0.138,0.348-0.218,0.537-0.234"/>
	<path class="st5" d="M435.709,393.926c1.514-0.124,3.082,3.933,3.503,9.062s-0.465,9.388-1.979,9.512
		c-0.095,0.008-0.189-0.001-0.284-0.025"/>
	<path class="st4" d="M430.099,414.533c-1.421-0.362-2.824-4.229-3.219-9.037c-0.368-4.488,0.264-8.309,1.442-9.278
		c0.168-0.138,0.348-0.218,0.537-0.234"/>
	<path class="st5" d="M428.556,395.956c1.514-0.124,3.082,3.933,3.503,9.062s-0.465,9.388-1.979,9.512
		c-0.095,0.008-0.189-0.001-0.284-0.025"/>
	<path class="st4" d="M424.329,418.085c-1.421-0.362-2.824-4.229-3.219-9.037c-0.368-4.488,0.264-8.309,1.442-9.278
		c0.168-0.138,0.348-0.218,0.537-0.234"/>
	<path class="st5" d="M422.787,399.508c1.514-0.124,3.082,3.933,3.503,9.062c0.421,5.129-0.465,9.388-1.979,9.512
		c-0.095,0.008-0.189-0.001-0.284-0.025"/>
	<path class="st4" d="M417.138,419.333c-1.421-0.362-2.824-4.229-3.219-9.037c-0.368-4.488,0.264-8.309,1.442-9.278
		c0.168-0.138,0.348-0.218,0.537-0.234"/>
	<path class="st5" d="M415.595,400.756c1.514-0.124,3.082,3.933,3.503,9.062s-0.465,9.388-1.979,9.512
		c-0.095,0.008-0.189-0.001-0.284-0.025"/>
	<path class="st4" d="M410.794,421.47c-1.421-0.362-2.824-4.229-3.219-9.037c-0.368-4.488,0.264-8.309,1.442-9.278
		c0.168-0.138,0.348-0.218,0.537-0.234"/>
	<path class="st5" d="M409.252,402.894c1.514-0.124,3.082,3.933,3.503,9.062c0.421,5.129-0.465,9.388-1.979,9.512
		c-0.095,0.008-0.189-0.001-0.284-0.025"/>
	<path class="st4" d="M404.078,422.915c-1.421-0.362-2.824-4.229-3.219-9.037c-0.368-4.488,0.264-8.309,1.442-9.278
		c0.168-0.138,0.348-0.218,0.537-0.234"/>
	<path class="st5" d="M402.536,404.338c1.514-0.124,3.082,3.933,3.503,9.062s-0.465,9.388-1.979,9.512
		c-0.095,0.008-0.189-0.001-0.284-0.025"/>
	<path class="st4" d="M397.463,424.657c-1.421-0.362-2.824-4.229-3.219-9.037c-0.368-4.488,0.264-8.309,1.442-9.278
		c0.168-0.138,0.348-0.218,0.537-0.234"/>
	<path class="st5" d="M395.921,406.08c1.514-0.124,3.082,3.933,3.503,9.062c0.421,5.129-0.465,9.388-1.979,9.512
		c-0.095,0.008-0.189-0.001-0.284-0.025"/>
	<path class="st4" d="M390.599,426.153c-1.123-0.351-2.272-3.939-2.637-8.387c-0.341-4.151,0.114-7.675,1.031-8.557
		c0.131-0.126,0.271-0.198,0.42-0.21"/>
	<path class="st5" d="M389.174,408.97c1.191-0.098,2.471,3.669,2.861,8.413c0.389,4.744-0.26,8.669-1.451,8.767
		c-0.074,0.006-0.149-0.003-0.224-0.026"/>
	<path class="st2" d="M466.678,403.56c2.495,2.795,1.304,9.024-2.908,14.456c-3.931,5.069-9.19,7.764-12.58,6.701
		c-0.484-0.152-0.93-0.38-1.329-0.689"/>
	<path class="st2" d="M442.235,412.181c1.816,2.034,0.949,6.567-2.116,10.519c-2.86,3.689-6.687,5.649-9.154,4.876
		c-0.352-0.11-0.677-0.277-0.967-0.502"/>
	<path class="st2" d="M454.879,406.012c2.183,2.445,1.141,7.895-2.544,12.647c-3.439,4.435-8.04,6.792-11.006,5.863
		c-0.424-0.133-0.814-0.333-1.163-0.603"/>
	<path class="st2" d="M502.667,430.412c0.431,1.605-2.547,5.056-6.995,8.005c-4.151,2.752-8.206,4.156-9.794,3.5
		c-0.227-0.094-0.403-0.229-0.523-0.409"/>
	<path class="st2" d="M476.586,406.127c2.495,2.795,1.304,9.024-2.908,14.456c-3.931,5.069-9.19,7.764-12.58,6.701
		c-0.484-0.152-0.93-0.38-1.329-0.689"/>
	<path class="st3" d="M460.354,427.142c-3.189-2.473-2.133-9.174,2.359-14.968c4.492-5.793,10.719-8.485,13.909-6.012
		c0.199,0.155,0.382,0.326,0.548,0.512"/>
	<path class="st2" d="M482.135,386.243c2.598,2.663,2.259,7.793-0.916,11.887c-2.963,3.822-7.415,5.475-10.618,4.172
		c-0.458-0.186-0.89-0.433-1.288-0.742"/>
	<path class="st3" d="M469.907,402.093c-3.189-2.473-3.029-8.018,0.357-12.386s8.717-5.903,11.907-3.43
		c0.199,0.155,0.386,0.321,0.559,0.499"/>
	<path class="st2" d="M490.261,388.819c2.598,2.663,2.259,7.793-0.916,11.887c-2.963,3.822-7.415,5.475-10.618,4.172
		c-0.458-0.186-0.89-0.433-1.288-0.742"/>
	<path class="st3" d="M478.033,404.669c-3.189-2.473-3.029-8.018,0.357-12.386c3.387-4.368,8.717-5.903,11.907-3.43
		c0.199,0.155,0.386,0.321,0.559,0.499"/>
	<path class="st2" d="M495.934,392.328c2.598,2.663,2.259,7.793-0.916,11.887c-2.963,3.822-7.415,5.475-10.618,4.172
		c-0.458-0.186-0.89-0.433-1.288-0.742"/>
	<path class="st3" d="M483.706,408.178c-3.189-2.473-3.029-8.018,0.357-12.386c3.387-4.368,8.717-5.903,11.907-3.43
		c0.199,0.155,0.386,0.321,0.559,0.499"/>
	<path class="st2" d="M504.853,397.642c2.598,2.663,2.259,7.793-0.916,11.887c-2.963,3.822-7.415,5.475-10.618,4.172
		c-0.458-0.186-0.89-0.433-1.288-0.742"/>
	<path class="st3" d="M492.625,413.492c-3.189-2.473-3.029-8.018,0.357-12.386c3.387-4.368,8.717-5.903,11.907-3.43
		c0.199,0.155,0.386,0.321,0.559,0.499"/>
	<path class="st2" d="M512.482,403.28c2.598,2.663,2.259,7.793-0.916,11.887c-2.963,3.822-7.415,5.475-10.618,4.172
		c-0.458-0.186-0.89-0.433-1.288-0.742"/>
	<path class="st3" d="M500.254,419.13c-3.189-2.473-3.029-8.018,0.357-12.386c3.387-4.368,8.717-5.903,11.907-3.43
		c0.199,0.155,0.386,0.321,0.559,0.499"/>
	<path class="st2" d="M521.261,411.548c1.81,3.25,0.141,8.112-3.995,11.233c-3.86,2.913-8.59,3.344-11.34,1.247
		c-0.393-0.299-0.745-0.65-1.049-1.053"/>
	<path class="st3" d="M505.311,423.645c-2.431-3.222-0.825-8.532,3.587-11.861c4.412-3.329,9.959-3.416,12.39-0.194
		c0.152,0.201,0.288,0.411,0.409,0.628"/>
	<path class="st2" d="M524.245,417.046c0.964,2.045-1.065,5.74-4.796,8.555c-3.483,2.628-7.294,3.619-9.171,2.53
		c-0.268-0.156-0.497-0.354-0.679-0.596"/>
	<path class="st3" d="M509.846,427.948c-1.46-1.935,0.583-5.938,4.563-8.941c3.98-3.003,8.39-3.869,9.85-1.934
		c0.091,0.121,0.169,0.25,0.233,0.386"/>
	<path class="st2" d="M526.29,424.402c0.822,1.743-0.907,4.892-4.088,7.292c-2.968,2.24-6.217,3.085-7.817,2.156
		c-0.229-0.133-0.423-0.302-0.579-0.508"/>
	<path class="st3" d="M514.018,433.694c-1.244-1.649,0.497-5.061,3.889-7.621c3.392-2.56,7.151-3.298,8.396-1.649
		c0.078,0.103,0.144,0.213,0.199,0.329"/>
	<path class="st2" d="M529.46,428.525c0.76,1.613-0.84,4.528-3.784,6.749c-2.747,2.073-5.755,2.855-7.235,1.996
		c-0.211-0.123-0.392-0.279-0.536-0.47"/>
	<path class="st3" d="M518.101,437.125c-1.152-1.527,0.46-4.685,3.6-7.054c3.14-2.369,6.619-3.052,7.771-1.526
		c0.072,0.095,0.133,0.197,0.184,0.305"/>
	<path class="st3" d="M450.446,424.574c-3.189-2.473-2.133-9.174,2.359-14.968c4.492-5.793,10.719-8.485,13.909-6.012
		c0.199,0.155,0.382,0.326,0.548,0.512"/>
	<path class="st3" d="M440.678,424.397c-2.79-2.164-1.866-8.026,2.064-13.095c3.93-5.068,9.378-7.423,12.168-5.26
		c0.174,0.135,0.334,0.285,0.48,0.448"/>
	<path class="st3" d="M430.424,427.472c-2.321-1.799-1.552-6.676,1.717-10.891c3.269-4.216,7.8-6.174,10.121-4.375
		c0.145,0.112,0.278,0.237,0.399,0.373"/>
	<path class="st2" d="M482.521,411.157c2.179,2.497,0.933,8.245-3.02,13.343c-3.689,4.758-8.515,7.373-11.549,6.49
		c-0.433-0.126-0.83-0.324-1.182-0.596"/>
	<path class="st3" d="M467.282,430.88c-2.815-2.183-1.679-8.36,2.538-13.798s9.917-8.077,12.732-5.894
		c0.176,0.136,0.336,0.288,0.482,0.455"/>
	<path class="st2" d="M489.707,415.747c2.179,2.497,0.933,8.245-3.02,13.343c-3.689,4.758-8.515,7.373-11.549,6.49
		c-0.433-0.126-0.83-0.324-1.182-0.596"/>
	<path class="st3" d="M474.469,435.47c-2.815-2.183-1.679-8.36,2.538-13.798s9.917-8.077,12.732-5.894
		c0.176,0.136,0.336,0.288,0.482,0.455"/>
	<path class="st2" d="M497.718,422.172c1.375,2.478-1.123,7.631-5.913,11.951c-4.471,4.032-9.459,6.003-11.992,4.928
		c-0.362-0.154-0.674-0.369-0.927-0.65"/>
	<path class="st3" d="M479.233,438.891c-2.025-2.246,0.476-7.802,5.586-12.41c5.11-4.608,10.894-6.523,12.919-4.278
		c0.127,0.14,0.235,0.294,0.327,0.459"/>
	<path class="st4" d="M476.207,458.007c-0.575-1.001,1.006-4.414,3.73-7.947c2.542-3.297,5.237-5.605,6.491-5.653
		c0.179-0.007,0.329,0.033,0.444,0.122"/>
	<path class="st5" d="M486.719,444.349c0.925,0.713-0.68,4.346-3.585,8.114s-6.01,6.245-6.935,5.531
		c-0.058-0.045-0.106-0.101-0.144-0.167"/>
	<path class="st4" d="M468.719,455.916c-0.627-0.955,0.822-5.127,3.422-9.725c2.427-4.291,5.053-7.532,6.32-7.908
		c0.181-0.054,0.334-0.049,0.455,0.019"/>
	<path class="st5" d="M478.753,438.145c0.968,0.548-0.495,4.967-3.268,9.872c-2.773,4.904-5.807,8.436-6.775,7.889
		c-0.061-0.034-0.112-0.084-0.153-0.147"/>
	<path class="st4" d="M458.488,455.119c-0.773-1.164,0.971-6.223,4.12-11.792c2.939-5.198,6.129-9.117,7.676-9.566
		c0.221-0.064,0.409-0.057,0.557,0.027"/>
	<path class="st5" d="M470.641,433.595c1.188,0.672-0.573,6.031-3.932,11.971c-3.359,5.94-7.045,10.211-8.233,9.539
		c-0.074-0.042-0.137-0.102-0.188-0.18"/>
	<path class="st4" d="M449.144,451.094c-0.773-1.164,0.971-6.223,4.12-11.792c2.939-5.198,6.129-9.117,7.676-9.566
		c0.221-0.064,0.408-0.057,0.557,0.027"/>
	<path class="st5" d="M461.297,429.57c1.188,0.672-0.573,6.031-3.932,11.971c-3.359,5.94-7.045,10.211-8.233,9.539
		c-0.074-0.042-0.137-0.102-0.188-0.18"/>
	<path class="st4" d="M439.706,449.717c-0.773-1.164,0.971-6.223,4.12-11.792c2.939-5.198,6.129-9.117,7.676-9.566
		c0.221-0.064,0.408-0.057,0.557,0.027"/>
	<path class="st5" d="M451.859,428.193c1.188,0.672-0.573,6.031-3.932,11.971c-3.359,5.94-7.045,10.211-8.233,9.539
		c-0.074-0.042-0.137-0.102-0.188-0.18"/>
	<path class="st4" d="M430.652,449.751c-0.773-1.164,0.971-6.223,4.12-11.792c2.939-5.198,6.129-9.117,7.676-9.566
		c0.221-0.064,0.408-0.057,0.557,0.027"/>
	<path class="st5" d="M442.805,428.227c1.188,0.672-0.573,6.031-3.932,11.971c-3.359,5.94-7.045,10.211-8.233,9.539
		c-0.074-0.042-0.137-0.102-0.188-0.18"/>
	<path class="st4" d="M424.761,449.501c-0.918-1.053,0.149-6.296,2.543-12.229c2.234-5.537,4.883-9.841,6.358-10.488
		c0.211-0.092,0.397-0.11,0.556-0.047"/>
	<path class="st5" d="M433.994,426.573c1.265,0.51,0.221,6.055-2.332,12.383c-2.553,6.328-5.649,11.045-6.914,10.534
		c-0.079-0.032-0.149-0.083-0.21-0.154"/>
	<path class="st4" d="M416.855,449.685c-0.931-1.068,0.151-6.385,2.578-12.401c2.265-5.615,4.952-9.979,6.448-10.635
		c0.214-0.094,0.403-0.112,0.563-0.047"/>
	<path class="st5" d="M426.218,426.435c1.283,0.518,0.224,6.139-2.365,12.557c-2.589,6.417-5.728,11.2-7.011,10.682
		c-0.08-0.032-0.151-0.085-0.213-0.156"/>
	<path class="st4" d="M408.943,449.662c-0.931-1.068,0.151-6.385,2.578-12.401c2.265-5.615,4.952-9.979,6.448-10.635
		c0.214-0.094,0.403-0.112,0.563-0.047"/>
	<path class="st5" d="M418.305,426.412c1.283,0.518,0.224,6.139-2.365,12.557c-2.589,6.417-5.728,11.2-7.011,10.682
		c-0.08-0.032-0.151-0.085-0.213-0.156"/>
	<path class="st4" d="M402.006,448.502c-0.931-1.068,0.151-6.385,2.578-12.401c2.265-5.615,4.952-9.979,6.448-10.635
		c0.214-0.094,0.403-0.112,0.563-0.047"/>
	<path class="st5" d="M411.368,425.252c1.283,0.518,0.224,6.139-2.365,12.557s-5.728,11.2-7.011,10.682
		c-0.08-0.032-0.151-0.085-0.213-0.156"/>
	<path class="st4" d="M395.144,449.795c-0.995-1.141,0.161-6.824,2.755-13.253c2.421-6.001,5.292-10.665,6.891-11.366
		c0.228-0.1,0.431-0.12,0.602-0.05"/>
	<path class="st5" d="M405.15,424.946c1.371,0.553,0.24,6.562-2.527,13.42c-2.767,6.858-6.122,11.97-7.493,11.417
		c-0.086-0.035-0.162-0.09-0.228-0.167"/>
	<path class="st4" d="M388.586,449.795c-0.995-1.141,0.161-6.824,2.755-13.253c2.421-6.001,5.292-10.665,6.891-11.366
		c0.228-0.1,0.431-0.12,0.602-0.05"/>
	<path class="st5" d="M398.591,424.946c1.371,0.553,0.24,6.562-2.527,13.42c-2.767,6.858-6.122,11.97-7.493,11.417
		c-0.086-0.035-0.162-0.09-0.228-0.167"/>
	<path class="st4" d="M382.968,449.242c-0.93-1.066,0.151-6.376,2.575-12.384c2.262-5.608,4.945-9.965,6.439-10.621
		c0.213-0.094,0.402-0.112,0.563-0.047"/>
	<path class="st5" d="M392.318,426.022c1.281,0.517,0.224,6.131-2.362,12.54c-2.586,6.409-5.72,11.185-7.002,10.668
		c-0.08-0.032-0.151-0.085-0.213-0.156"/>
	<path class="st4" d="M377.877,448.025c-0.881-1.01,0.143-6.04,2.439-11.732c2.143-5.312,4.685-9.44,6.1-10.061
		c0.202-0.089,0.381-0.106,0.533-0.045"/>
	<path class="st5" d="M386.734,426.029c1.214,0.49,0.212,5.808-2.237,11.879s-5.419,10.596-6.633,10.106
		c-0.076-0.031-0.143-0.08-0.202-0.147"/>
	<path class="st4" d="M374.822,442.63c-0.534-0.612,0.087-3.662,1.479-7.112c1.299-3.22,2.84-5.723,3.698-6.099
		c0.123-0.054,0.231-0.064,0.323-0.027"/>
	<path class="st5" d="M380.191,429.295c0.736,0.297,0.129,3.521-1.356,7.201c-1.485,3.68-3.285,6.423-4.021,6.126
		c-0.046-0.019-0.087-0.049-0.122-0.089"/>
	<path class="st4" d="M471.425,505.723c-0.647-1.36,1.986-6.49,6.196-11.95c3.929-5.096,7.93-8.791,9.649-9.033
		c0.246-0.035,0.445,0.001,0.59,0.113"/>
	<path class="st5" d="M487.675,484.616c1.164,0.898-1.532,6.347-6.022,12.171c-4.49,5.824-9.074,9.818-10.239,8.92
		c-0.073-0.056-0.13-0.13-0.174-0.221"/>
	<path class="st4" d="M465.113,503.985c-0.773-1.164,0.971-6.223,4.12-11.792c2.939-5.198,6.129-9.117,7.676-9.566
		c0.221-0.064,0.408-0.057,0.557,0.027"/>
	<path class="st5" d="M477.266,482.461c1.188,0.672-0.573,6.031-3.932,11.971c-3.359,5.94-7.045,10.211-8.233,9.539
		c-0.074-0.042-0.137-0.102-0.188-0.18"/>
	<path class="st2" d="M387.365,446.839c0.459,0.705-0.595,4.32-2.491,8.432c-1.77,3.838-3.686,6.837-4.612,7.308
		c-0.132,0.067-0.244,0.083-0.333,0.042"/>
	<path class="st3" d="M380.048,462.731c-0.708-0.327,0.357-4.147,2.379-8.534c2.022-4.386,4.236-7.677,4.945-7.351
		c0.044,0.02,0.082,0.054,0.112,0.101"/>
	<path class="st2" d="M395.391,447.739c0.739,0.91-0.314,5.155-2.501,9.898c-2.041,4.427-4.394,7.821-5.651,8.277
		c-0.18,0.065-0.337,0.07-0.468,0.01"/>
	<path class="st3" d="M386.954,466.072c-1.047-0.483-0.004-4.975,2.329-10.035c2.333-5.06,5.073-8.77,6.119-8.287
		c0.065,0.03,0.123,0.076,0.172,0.137"/>
	<path class="st2" d="M403.567,448.502c0.825,0.833,0.191,5.161-1.522,10.095c-1.599,4.605-3.609,8.213-4.816,8.79
		c-0.172,0.082-0.328,0.103-0.465,0.056"/>
	<path class="st3" d="M396.961,467.571c-1.089-0.378-0.49-4.951,1.337-10.215c1.827-5.263,4.191-9.224,5.28-8.846
		c0.068,0.024,0.13,0.064,0.184,0.119"/>
	<path class="st2" d="M413.463,450.592c1.14,1.022,0.569,6.03-1.393,11.679c-1.831,5.273-4.265,9.357-5.824,9.955
		c-0.223,0.086-0.428,0.1-0.61,0.036"/>
	<path class="st3" d="M405.903,472.424c-1.461-0.507-0.95-5.804,1.142-11.829s4.973-10.499,6.434-9.992
		c0.091,0.032,0.175,0.082,0.251,0.15"/>
	<path class="st2" d="M421.89,451.829c1.14,1.022,0.569,6.03-1.393,11.679c-1.831,5.273-4.265,9.357-5.824,9.955
		c-0.223,0.086-0.428,0.1-0.61,0.036"/>
	<path class="st3" d="M414.33,473.661c-1.461-0.507-0.95-5.804,1.142-11.829c2.092-6.026,4.973-10.499,6.434-9.992
		c0.091,0.032,0.175,0.082,0.251,0.15"/>
	<path class="st2" d="M431.753,452.584c1.14,1.022,0.569,6.03-1.393,11.679c-1.831,5.273-4.265,9.357-5.824,9.955
		c-0.223,0.086-0.428,0.1-0.61,0.036"/>
	<path class="st3" d="M424.193,474.416c-1.461-0.507-0.95-5.804,1.142-11.829c2.092-6.026,4.973-10.499,6.434-9.992
		c0.091,0.032,0.175,0.082,0.251,0.15"/>
	<path class="st2" d="M441.6,452.56c1.605,1.13,1.537,6.895-0.236,13.447c-1.655,6.115-4.245,10.89-6.174,11.635
		c-0.275,0.106-0.537,0.13-0.781,0.065"/>
	<path class="st3" d="M434.775,477.882c-1.95-0.528-1.999-6.621-0.108-13.61c1.891-6.989,5.005-12.227,6.955-11.699
		c0.122,0.033,0.236,0.088,0.343,0.163"/>
	<path class="st2" d="M450.317,452.432c1.408,1.076,1.188,6.792-0.583,13.335c-1.652,6.107-4.107,10.911-5.857,11.703
		c-0.25,0.113-0.485,0.144-0.702,0.086"/>
	<path class="st3" d="M443.499,477.719c-1.734-0.469-1.609-6.508,0.279-13.487c1.888-6.98,4.825-12.257,6.559-11.788
		c0.108,0.029,0.21,0.08,0.303,0.152"/>
	<path class="st2" d="M458.054,453.333c1.408,1.076,1.188,6.792-0.583,13.335c-1.652,6.107-4.107,10.911-5.857,11.703
		c-0.25,0.113-0.485,0.144-0.702,0.086"/>
	<path class="st3" d="M451.235,478.619c-1.734-0.469-1.609-6.507,0.279-13.487c1.888-6.98,4.825-12.257,6.559-11.788
		c0.108,0.029,0.21,0.08,0.303,0.152"/>
	<path class="st2" d="M466.075,454.461c1.349,1.03,1.138,6.507-0.558,12.776c-1.583,5.851-3.935,10.454-5.611,11.212
		c-0.239,0.108-0.465,0.138-0.673,0.082"/>
	<path class="st3" d="M459.542,478.688c-1.661-0.449-1.542-6.235,0.268-12.922c1.809-6.687,4.623-11.744,6.284-11.294
		c0.104,0.028,0.201,0.077,0.291,0.146"/>
	<path class="st2" d="M474.479,455.228c1.288,0.984,1.086,6.212-0.533,12.197c-1.511,5.586-3.757,9.98-5.357,10.704
		c-0.229,0.103-0.444,0.132-0.642,0.078"/>
	<path class="st3" d="M468.243,478.357c-1.586-0.429-1.472-5.952,0.256-12.336c1.727-6.384,4.413-11.212,5.999-10.782
		c0.099,0.027,0.192,0.074,0.277,0.139"/>
	<path class="st2" d="M481.894,455.174c1.288,0.984,1.086,6.212-0.533,12.197c-1.511,5.586-3.757,9.98-5.357,10.704
		c-0.229,0.103-0.444,0.132-0.642,0.078"/>
	<path class="st3" d="M475.657,478.304c-1.586-0.429-1.472-5.952,0.256-12.336c1.727-6.384,4.413-11.212,5.999-10.782
		c0.099,0.027,0.192,0.074,0.277,0.139"/>
	<path class="st2" d="M488.751,456.572c1.209,0.923,1.02,5.831-0.5,11.449c-1.419,5.243-3.526,9.368-5.028,10.048
		c-0.215,0.097-0.417,0.124-0.603,0.073"/>
	<path class="st3" d="M482.897,478.283c-1.489-0.403-1.381-5.587,0.24-11.58c1.621-5.993,4.143-10.524,5.631-10.121
		c0.093,0.025,0.18,0.069,0.26,0.131"/>
	<path class="st2" d="M494.83,458.932c1.113,0.85,0.939,5.37-0.461,10.543c-1.306,4.829-3.247,8.627-4.63,9.253
		c-0.198,0.089-0.384,0.114-0.555,0.068"/>
	<path class="st3" d="M489.439,478.924c-1.371-0.371-1.272-5.145,0.221-10.663c1.493-5.518,3.815-9.691,5.186-9.32
		c0.086,0.023,0.166,0.064,0.24,0.12"/>
	<path class="st2" d="M501.243,461.095c0.82,0.707,0.538,4.665-0.698,9.236c-1.154,4.266-2.758,7.652-3.832,8.245
		c-0.153,0.085-0.296,0.112-0.425,0.077"/>
	<path class="st3" d="M496.478,478.758c-1.032-0.279-0.799-4.458,0.52-9.333s3.225-8.602,4.257-8.322
		c0.064,0.017,0.124,0.05,0.179,0.097"/>
	<path class="st2" d="M509.532,441.728c0.385,1.434-2.276,4.517-6.249,7.152c-3.709,2.459-7.332,3.713-8.751,3.127
		c-0.203-0.084-0.36-0.205-0.467-0.366"/>
	<path class="st3" d="M494.19,451.923c-0.852-1.285,1.893-4.606,6.131-7.416s8.365-4.047,9.218-2.761
		c0.053,0.08,0.092,0.169,0.118,0.264"/>
	<path class="st2" d="M506.314,434.808c0.431,1.605-2.547,5.056-6.995,8.005c-4.151,2.752-8.206,4.156-9.794,3.5
		c-0.227-0.094-0.403-0.229-0.523-0.409"/>
	<path class="st3" d="M489.143,446.22c-0.954-1.439,2.118-5.155,6.862-8.301s9.363-4.529,10.317-3.091
		c0.06,0.09,0.104,0.189,0.132,0.296"/>
	<path class="st2" d="M513.761,446.703c0.328,1.339-2.349,4.328-6.282,6.936c-3.672,2.434-7.222,3.731-8.578,3.224
		c-0.194-0.072-0.343-0.182-0.441-0.33"/>
	<path class="st3" d="M498.572,456.795c-0.785-1.184,1.98-4.399,6.176-7.181c4.196-2.782,8.234-4.078,9.019-2.894
		c0.049,0.074,0.084,0.156,0.106,0.245"/>
	<path class="st2" d="M515.374,452.739c0.242,1.011-1.809,3.285-4.814,5.277c-2.805,1.86-5.512,2.859-6.541,2.482
		c-0.147-0.054-0.26-0.136-0.334-0.247"/>
	<path class="st3" d="M503.77,460.449c-0.591-0.891,1.529-3.337,4.734-5.462c3.206-2.126,6.283-3.126,6.874-2.235
		c0.037,0.056,0.063,0.117,0.079,0.185"/>
	<path class="st4" d="M456.751,502.985c-0.773-1.164,0.971-6.223,4.12-11.792c2.939-5.198,6.129-9.117,7.676-9.566
		c0.221-0.064,0.408-0.057,0.557,0.027"/>
	<path class="st5" d="M468.904,481.461c1.188,0.672-0.573,6.031-3.932,11.971c-3.359,5.94-7.045,10.211-8.233,9.539
		c-0.074-0.042-0.137-0.102-0.188-0.18"/>
	<path class="st4" d="M448.408,500.96c-0.773-1.164,0.971-6.223,4.12-11.792c2.939-5.198,6.129-9.117,7.676-9.566
		c0.221-0.064,0.408-0.057,0.557,0.027"/>
	<path class="st5" d="M460.56,479.436c1.188,0.672-0.573,6.031-3.932,11.971c-3.359,5.94-7.045,10.211-8.233,9.539
		c-0.074-0.042-0.137-0.102-0.188-0.18"/>
	<path class="st4" d="M438.97,499.583c-0.773-1.164,0.971-6.223,4.12-11.792c2.939-5.198,6.129-9.117,7.676-9.566
		c0.221-0.064,0.408-0.057,0.557,0.027"/>
	<path class="st5" d="M451.122,478.059c1.188,0.672-0.573,6.031-3.932,11.971c-3.359,5.94-7.045,10.211-8.233,9.539
		c-0.074-0.042-0.137-0.102-0.188-0.18"/>
	<path class="st4" d="M429.578,499.583c-0.773-1.164,0.971-6.223,4.12-11.792c2.939-5.198,6.129-9.117,7.676-9.566
		c0.221-0.064,0.409-0.057,0.557,0.027"/>
	<path class="st5" d="M441.73,478.059c1.188,0.672-0.573,6.031-3.932,11.971c-3.359,5.94-7.045,10.211-8.233,9.539
		c-0.074-0.042-0.137-0.102-0.188-0.18"/>
	<path class="st4" d="M422.922,500.177c-0.773-1.164,0.971-6.223,4.12-11.792c2.939-5.198,6.129-9.117,7.676-9.566
		c0.221-0.064,0.409-0.057,0.557,0.027"/>
	<path class="st5" d="M435.074,478.653c1.188,0.672-0.573,6.031-3.932,11.971c-3.359,5.94-7.045,10.211-8.233,9.539
		c-0.074-0.042-0.137-0.102-0.188-0.18"/>
	<path class="st4" d="M417.374,497.466c-0.773-1.164,0.971-6.223,4.12-11.792c2.939-5.198,6.129-9.117,7.676-9.566
		c0.221-0.064,0.409-0.057,0.557,0.027"/>
	<path class="st5" d="M429.527,475.942c1.188,0.672-0.573,6.031-3.932,11.971c-3.359,5.94-7.045,10.211-8.233,9.539
		c-0.074-0.042-0.137-0.102-0.188-0.18"/>
	<path class="st4" d="M411.347,495.46c-0.773-1.164,0.971-6.223,4.12-11.792c2.939-5.198,6.129-9.117,7.676-9.566
		c0.221-0.064,0.408-0.057,0.557,0.027"/>
	<path class="st5" d="M423.5,473.936c1.188,0.672-0.573,6.031-3.932,11.971c-3.359,5.94-7.045,10.211-8.233,9.539
		c-0.074-0.042-0.137-0.102-0.188-0.18"/>
	<path class="st4" d="M404.631,494.808c-0.773-1.164,0.971-6.223,4.12-11.792c2.939-5.198,6.129-9.117,7.676-9.566
		c0.221-0.064,0.408-0.057,0.557,0.027"/>
	<path class="st5" d="M416.784,473.284c1.188,0.672-0.573,6.031-3.932,11.971s-7.045,10.211-8.233,9.539
		c-0.074-0.042-0.137-0.102-0.188-0.18"/>
	<path class="st4" d="M395.588,495.35c-0.773-1.164,0.971-6.223,4.12-11.792c2.939-5.198,6.129-9.117,7.676-9.566
		c0.221-0.064,0.408-0.057,0.557,0.027"/>
	<path class="st5" d="M407.741,473.826c1.188,0.672-0.573,6.031-3.932,11.971c-3.359,5.94-7.045,10.211-8.233,9.539
		c-0.074-0.042-0.137-0.102-0.188-0.18"/>
	<path class="st4" d="M391.269,491.431c-0.773-1.164,0.971-6.223,4.12-11.792c2.939-5.198,6.129-9.117,7.676-9.566
		c0.221-0.064,0.408-0.057,0.557,0.027"/>
	<path class="st5" d="M403.422,469.907c1.188,0.672-0.573,6.031-3.932,11.971c-3.359,5.94-7.045,10.211-8.233,9.539
		c-0.074-0.042-0.137-0.102-0.188-0.18"/>
	<path class="st4" d="M386.046,487.967c-0.719-1.083,0.904-5.793,3.835-10.976c2.736-4.838,5.705-8.487,7.145-8.905
		c0.206-0.06,0.38-0.053,0.518,0.025"/>
	<path class="st5" d="M397.359,467.931c1.105,0.625-0.533,5.614-3.66,11.144c-3.127,5.529-6.558,9.505-7.663,8.88
		c-0.069-0.039-0.127-0.095-0.175-0.167"/>
	<path class="st4" d="M381.883,483.48c-0.601-0.906,0.756-4.842,3.206-9.175c2.287-4.044,4.769-7.094,5.972-7.443
		c0.172-0.05,0.318-0.045,0.433,0.021"/>
	<path class="st5" d="M391.339,466.733c0.924,0.523-0.446,4.693-3.059,9.315s-5.482,7.945-6.406,7.423
		c-0.058-0.033-0.107-0.08-0.147-0.14"/>
	<path class="st4" d="M378.853,477.81c-0.453-0.682,0.569-3.646,2.414-6.909c1.722-3.045,3.591-5.342,4.497-5.605
		c0.129-0.038,0.239-0.034,0.326,0.016"/>
	<path class="st5" d="M385.973,465.2c0.696,0.393-0.336,3.534-2.304,7.014s-4.128,5.983-4.823,5.589
		c-0.043-0.025-0.08-0.06-0.11-0.105"/>
	<path class="st4" d="M375.412,472.905c-0.302-0.455,0.38-2.434,1.612-4.612c1.15-2.033,2.397-3.566,3.002-3.742
		c0.086-0.025,0.16-0.022,0.218,0.01"/>
	<path class="st5" d="M380.166,464.486c0.465,0.263-0.224,2.359-1.538,4.683s-2.756,3.994-3.22,3.731
		c-0.029-0.016-0.054-0.04-0.074-0.07"/>
	<path class="st3" d="M485.496,441.823c-0.954-1.439,2.118-5.155,6.862-8.301c4.744-3.146,9.363-4.529,10.317-3.091
		c0.06,0.09,0.104,0.189,0.132,0.296"/>
</g>
<g id="Color">
</g>
<g id="Menu">
</g>
</svg>
