<?xml version="1.0" encoding="utf-8"?>
<!-- Generator: Adobe Illustrator 17.0.0, SVG Export Plug-In . SVG Version: 6.00 Build 0)  -->
<!DOCTYPE svg PUBLIC "-//W3C//DTD SVG 1.1//EN" "http://www.w3.org/Graphics/SVG/1.1/DTD/svg11.dtd">
<svg version="1.1" id="Layer_1" xmlns="http://www.w3.org/2000/svg" xmlns:xlink="http://www.w3.org/1999/xlink" x="0px" y="0px"
	 width="50px" height="50px" viewBox="0 0 50 50" style="enable-background:new 0 0 50 50;" xml:space="preserve">
<style type="text/css">
	.st0{fill:#202020;}
	.st1{fill:#ccc;}
</style>
<rect class="st0" width="50" height="50"/>
<g>
	<path class="st1" d="M35.402,14.598c0.385,0.385,0.385,1.008,0,1.393L15.99,35.402c-0.385,0.385-1.008,0.385-1.393,0l0,0
		c-0.385-0.385-0.385-1.008,0-1.393L34.01,14.598C34.394,14.213,35.018,14.213,35.402,14.598L35.402,14.598z"/>
	<path class="st1" d="M14.598,14.598c0.385-0.385,1.008-0.385,1.393,0L35.402,34.01c0.385,0.385,0.385,1.008,0,1.393l0,0
		c-0.385,0.385-1.008,0.385-1.393,0L14.598,15.99C14.213,15.606,14.213,14.982,14.598,14.598L14.598,14.598z"/>
</g>
</svg>
