<?xml version="1.0" encoding="utf-8"?>
<!-- Generator: Adobe Illustrator 17.0.0, SVG Export Plug-In . SVG Version: 6.00 Build 0)  -->
<!DOCTYPE svg PUBLIC "-//W3C//DTD SVG 1.1//EN" "http://www.w3.org/Graphics/SVG/1.1/DTD/svg11.dtd">
<svg version="1.1" id="Layer_1" xmlns="http://www.w3.org/2000/svg" xmlns:xlink="http://www.w3.org/1999/xlink" x="0px" y="0px"
	 width="50px" height="50px" viewBox="0 0 50 50" style="enable-background:new 0 0 50 50;" xml:space="preserve">
<style type="text/css">
	.st0{fill:#8dc72a;}
	.st1{fill:#fff;}
</style>
<rect class="st0" width="50" height="50"/>
<g>
	
		<image style="overflow:visible;enable-background:new    ;" width="192" height="167" xlink:href="E709432A9E5126D1.png"  transform="matrix(0.1544 0 0 0.1544 13.6279 15.5488)">
	</image>
	<g>
		<path class="st1" d="M36.096,18.37c-0.804,0.357-1.669,0.598-2.577,0.707c0.927-0.555,1.637-1.434,1.973-2.482
			c-0.866,0.515-1.827,0.887-2.849,1.089c-0.818-0.871-1.984-1.417-3.275-1.417c-2.477,0-4.486,2.009-4.486,4.486
			c0,0.352,0.039,0.694,0.116,1.022c-3.729-0.187-7.034-1.974-9.248-4.687c-0.386,0.662-0.607,1.433-0.607,2.255
			c0,1.557,0.792,2.93,1.995,3.734c-0.735-0.024-1.427-0.225-2.033-0.561c-0.001,0.019-0.001,0.037-0.001,0.056
			c0,2.174,1.547,3.986,3.599,4.399c-0.377,0.103-0.773,0.158-1.182,0.158c-0.289,0-0.57-0.029-0.844-0.081
			c0.571,1.782,2.228,3.08,4.191,3.115c-1.535,1.203-3.47,1.921-5.572,1.921c-0.362,0-0.719-0.021-1.07-0.063
			c1.985,1.273,4.343,2.016,6.877,2.016c8.252,0,12.765-6.836,12.765-12.765c0-0.194-0.005-0.387-0.013-0.581
			C34.734,20.061,35.495,19.27,36.096,18.37z"/>
	</g>
</g>
</svg>
